<svg xmlns="http://www.w3.org/2000/svg" width="16" height="16" version="1.1" viewBox="0 0 16 16">
 <defs>
  <style id="current-color-scheme" type="text/css">
   .ColorScheme-Text { color:#727272; } .ColorScheme-Highlight { color:#5294e2; }
  </style>
 </defs>
 <path class="ColorScheme-Text" d="M 14.4,3 H 7.1998 L 5.5999,1 H 1.6 C 0.71984,1 -1e-4,1.71997 -1e-4,2.6001 V 6.2 h 16 V 4.5999 C 15.9999,3.72 15.27993,3 14.4,3 Z" fill="currentColor" opacity=".5"/>
 <path class="ColorScheme-Text" d="m14.4 3h-12.8c-0.88016 0-1.6001 0.71997-1.6001 1.5999v7.8003c0 0.8799 0.71997 1.5999 1.6001 1.5999h12.8c0.8799 0 1.5999-0.71997 1.5999-1.5999v-7.8003c0-0.8799-0.71997-1.5999-1.5999-1.5999z" fill="currentColor"/>
 <path d="m1.5996 3c-0.10869 0-0.21365 0.012298-0.31641 0.033203h-0.0039062c-0.013451 0.0027707-0.025734 0.0086102-0.039062 0.011719-0.70747 0.165-1.2402 0.79899-1.2402 1.5547v1.0918l9.1191-2.6914h-7.5195zm11.465 0-13.064 3.8594v2.2793l15.98-4.7207c-0.092253-0.79382-0.76255-1.418-1.5801-1.418h-1.3359zm2.9355 2.5762-16 4.7246v2.0996c0 0.060336 0.010988 0.11713 0.017578 0.17578l15.982-4.7168v-2.2832zm0 3.4434-15.461 4.5664c0.28348 0.25403 0.65221 0.41406 1.0605 0.41406h5.2637l9.1367-2.6992v-2.2812zm-0.007812 3.4473-5.1855 1.5332h3.5938c0.85706 0 1.5558-0.68456 1.5918-1.5332z" fill="#fff" opacity=".15" style="paint-order:stroke markers fill"/>
</svg>
