<?xml version="1.0" encoding="UTF-8" standalone="no"?>
<!-- Created with Inkscape (http://www.inkscape.org/) -->

<svg
   xmlns:dc="http://purl.org/dc/elements/1.1/"
   xmlns:cc="http://creativecommons.org/ns#"
   xmlns:rdf="http://www.w3.org/1999/02/22-rdf-syntax-ns#"
   xmlns:svg="http://www.w3.org/2000/svg"
   xmlns="http://www.w3.org/2000/svg"
   xmlns:sodipodi="http://sodipodi.sourceforge.net/DTD/sodipodi-0.dtd"
   xmlns:inkscape="http://www.inkscape.org/namespaces/inkscape"
   width="64"
   height="64"
   id="svg2"
   version="1.1"
   inkscape:version="0.92.2 (5c3e80d, 2017-08-06)"
   sodipodi:docname="default-folder-hdd.svg"
   inkscape:export-filename="/media/Data/Main/Visuals/Icons/Numix/Desktop/repos/numix-wiki/Gjorgi/Numix-folders/48/New/folder-144.png"
   inkscape:export-xdpi="270"
   inkscape:export-ydpi="270">
  <defs
     id="defs4">
    <filter
       inkscape:collect="always"
       style="color-interpolation-filters:sRGB"
       id="filter4189"
       x="-0.1056"
       width="1.2112"
       y="-0.088"
       height="1.176">
      <feGaussianBlur
         inkscape:collect="always"
         stdDeviation="0.88"
         id="feGaussianBlur4191" />
    </filter>
  </defs>
  <sodipodi:namedview
     id="base"
     pagecolor="#ffffff"
     bordercolor="#666666"
     borderopacity="1.0"
     inkscape:pageopacity="0.0"
     inkscape:pageshadow="2"
     inkscape:zoom="10.551073"
     inkscape:cx="60.266231"
     inkscape:cy="19.371101"
     inkscape:document-units="px"
     inkscape:current-layer="layer1"
     showgrid="true"
     inkscape:window-width="1366"
     inkscape:window-height="740"
     inkscape:window-x="0"
     inkscape:window-y="28"
     inkscape:window-maximized="1"
     showguides="true"
     inkscape:guide-bbox="true">
    <inkscape:grid
       type="xygrid"
       id="grid2985"
       empspacing="5"
       visible="true"
       enabled="true"
       snapvisiblegridlinesonly="true" />
  </sodipodi:namedview>
  <metadata
     id="metadata7">
    <rdf:RDF>
      <cc:Work
         rdf:about="">
        <dc:format>image/svg+xml</dc:format>
        <dc:type
           rdf:resource="http://purl.org/dc/dcmitype/StillImage" />
        <dc:title />
      </cc:Work>
    </rdf:RDF>
  </metadata>
  <g
     inkscape:label="Layer 1"
     inkscape:groupmode="layer"
     id="layer1"
     transform="translate(0,-988.3622)">
    <g
       style="isolation:isolate"
       id="组"
       transform="matrix(0.98969072,0,0,0.98969072,-391.89691,738.54777)">
      <path
         d="m 452.563,266.563 h -27.282 l -6.062,-6.063 h -15.156 c -3.335,0 -6.063,2.728 -6.063,6.063 v 12.125 h 60.625 v -6.063 c 0,-3.334 -2.728,-6.062 -6.062,-6.062 z"
         id="path2"
         inkscape:connector-curvature="0"
         style="fill:#ffa000" />
      <path
         d="m 452.563,266.563 h -48.5 c -3.335,0 -6.063,2.728 -6.063,6.062 v 30.313 c 0,3.334 2.728,6.062 6.063,6.062 h 48.5 c 3.334,0 6.062,-2.728 6.062,-6.062 v -30.313 c 0,-3.334 -2.728,-6.062 -6.062,-6.062 z"
         id="path4"
         inkscape:connector-curvature="0"
         style="fill:#ffca28" />
    </g>
    <g
       id="g3347"
       style="opacity:0.05;fill:#000000;filter:url(#filter4189)">
      <path
         inkscape:connector-curvature="0"
         id="rect3828"
         transform="translate(0,988.3622)"
         d="m 24,26 c -1.42457,0 -2,0.6704 -2,2 v 20 c 0,1.3296 0.57543,2 2,2 H 39.4375 C 40.862072,50 42,49.3296 42,48 V 28 c 0,-1.3296 -0.575428,-2 -2,-2 z m 1.5,2 C 26.328427,28 27,28.671573 27,29.5 27,30.328427 26.328427,31 25.5,31 24.671573,31 24,30.328427 24,29.5 24,28.671573 24.671573,28 25.5,28 Z m 13,0 C 39.328427,28 40,28.671573 40,29.5 40,30.328427 39.328427,31 38.5,31 37.671573,31 37,30.328427 37,29.5 37,28.671573 37.671573,28 38.5,28 Z M 32,30 c 2.209138,0 4,1.7908 4,4 0,2.2092 -1.790862,4 -4,4 -2.209138,0 -4,-1.7908 -4,-4 0,-2.2092 1.790862,-4 4,-4 z m -6.5,7 C 26.328427,37 27,37.671573 27,38.5 27,39.328427 26.328427,40 25.5,40 24.671573,40 24,39.328427 24,38.5 24,37.671573 24.671573,37 25.5,37 Z m 13,0 C 39.328427,37 40,37.671573 40,38.5 40,39.328427 39.328427,40 38.5,40 37.671573,40 37,39.328427 37,38.5 37,37.671573 37.671573,37 38.5,37 Z M 25,46 h 14 c 0.554,0 1,0.446 1,1 0,0.554 -0.446,1 -1,1 H 25 c -0.554,0 -1,-0.446 -1,-1 0,-0.554 0.446,-1 1,-1 z"
         style="opacity:1;fill:#000000;fill-opacity:1;stroke:none" />
      <circle
         r="2"
         cy="34"
         cx="32"
         transform="translate(0,988.3622)"
         id="path2995"
         style="opacity:1;fill:#000000;fill-opacity:1;fill-rule:evenodd;stroke:none" />
    </g>
    <g
       style="opacity:1;fill:#ffffff"
       id="g4193">
      <path
         inkscape:connector-curvature="0"
         style="opacity:1;fill:#ffffff;fill-opacity:1;stroke:none"
         d="m 24,26 c -1.42457,0 -2,0.6704 -2,2 v 20 c 0,1.3296 0.57543,2 2,2 H 39.4375 C 40.862072,50 42,49.3296 42,48 V 28 c 0,-1.3296 -0.575428,-2 -2,-2 z m 1.5,2 C 26.328427,28 27,28.671573 27,29.5 27,30.328427 26.328427,31 25.5,31 24.671573,31 24,30.328427 24,29.5 24,28.671573 24.671573,28 25.5,28 Z m 13,0 C 39.328427,28 40,28.671573 40,29.5 40,30.328427 39.328427,31 38.5,31 37.671573,31 37,30.328427 37,29.5 37,28.671573 37.671573,28 38.5,28 Z M 32,30 c 2.209138,0 4,1.7908 4,4 0,2.2092 -1.790862,4 -4,4 -2.209138,0 -4,-1.7908 -4,-4 0,-2.2092 1.790862,-4 4,-4 z m -6.5,7 C 26.328427,37 27,37.671573 27,38.5 27,39.328427 26.328427,40 25.5,40 24.671573,40 24,39.328427 24,38.5 24,37.671573 24.671573,37 25.5,37 Z m 13,0 C 39.328427,37 40,37.671573 40,38.5 40,39.328427 39.328427,40 38.5,40 37.671573,40 37,39.328427 37,38.5 37,37.671573 37.671573,37 38.5,37 Z M 25,46 h 14 c 0.554,0 1,0.446 1,1 0,0.554 -0.446,1 -1,1 H 25 c -0.554,0 -1,-0.446 -1,-1 0,-0.554 0.446,-1 1,-1 z"
         transform="translate(0,988.3622)"
         id="path4195" />
      <circle
         r="2"
         cy="34"
         cx="32"
         style="opacity:1;fill:#ffffff;fill-opacity:1;fill-rule:evenodd;stroke:none"
         id="path4197"
         transform="translate(0,988.3622)" />
    </g>
  </g>
</svg>
