<?xml version="1.0" encoding="UTF-8" standalone="no"?>
<!-- Created with Inkscape (http://www.inkscape.org/) -->

<svg
   xmlns:dc="http://purl.org/dc/elements/1.1/"
   xmlns:cc="http://creativecommons.org/ns#"
   xmlns:rdf="http://www.w3.org/1999/02/22-rdf-syntax-ns#"
   xmlns:svg="http://www.w3.org/2000/svg"
   xmlns="http://www.w3.org/2000/svg"
   xmlns:sodipodi="http://sodipodi.sourceforge.net/DTD/sodipodi-0.dtd"
   xmlns:inkscape="http://www.inkscape.org/namespaces/inkscape"
   width="64"
   height="64"
   id="svg2"
   version="1.1"
   inkscape:version="0.92.2 (5c3e80d, 2017-08-06)"
   sodipodi:docname="default-user-home.svg"
   inkscape:export-filename="/media/Data/Main/Visuals/Icons/Numix/Desktop/repos/numix-wiki/Gjorgi/Numix-folders/48/New/folder-144.png"
   inkscape:export-xdpi="270"
   inkscape:export-ydpi="270">
  <defs
     id="defs4">
    <filter
       inkscape:collect="always"
       style="color-interpolation-filters:sRGB"
       id="filter4149"
       x="-0.095296472"
       width="1.1905929"
       y="-0.096713993"
       height="1.193428">
      <feGaussianBlur
         inkscape:collect="always"
         stdDeviation="0.55409058"
         id="feGaussianBlur4151" />
    </filter>
  </defs>
  <sodipodi:namedview
     id="base"
     pagecolor="#ffffff"
     bordercolor="#666666"
     borderopacity="1.0"
     inkscape:pageopacity="0.0"
     inkscape:pageshadow="2"
     inkscape:zoom="5.6497833"
     inkscape:cx="43.164282"
     inkscape:cy="27.151708"
     inkscape:document-units="px"
     inkscape:current-layer="layer1"
     showgrid="true"
     inkscape:window-width="1366"
     inkscape:window-height="740"
     inkscape:window-x="0"
     inkscape:window-y="28"
     inkscape:window-maximized="1"
     showguides="true"
     inkscape:guide-bbox="true">
    <inkscape:grid
       type="xygrid"
       id="grid2985"
       empspacing="5"
       visible="true"
       enabled="true"
       snapvisiblegridlinesonly="true" />
  </sodipodi:namedview>
  <metadata
     id="metadata7">
    <rdf:RDF>
      <cc:Work
         rdf:about="">
        <dc:format>image/svg+xml</dc:format>
        <dc:type
           rdf:resource="http://purl.org/dc/dcmitype/StillImage" />
        <dc:title />
      </cc:Work>
    </rdf:RDF>
  </metadata>
  <g
     inkscape:label="Layer 1"
     inkscape:groupmode="layer"
     id="layer1"
     transform="translate(0,-988.3622)">
    <g
       style="isolation:isolate"
       id="组"
       transform="matrix(0.98969072,0,0,0.98969072,-391.89691,738.54777)">
      <path
         d="m 452.563,266.563 h -27.282 l -6.062,-6.063 h -15.156 c -3.335,0 -6.063,2.728 -6.063,6.063 v 12.125 h 60.625 v -6.063 c 0,-3.334 -2.728,-6.062 -6.062,-6.062 z"
         id="path2"
         inkscape:connector-curvature="0"
         style="fill:#ffa000" />
      <path
         d="m 452.563,266.563 h -48.5 c -3.335,0 -6.063,2.728 -6.063,6.062 v 30.313 c 0,3.334 2.728,6.062 6.063,6.062 h 48.5 c 3.334,0 6.062,-2.728 6.062,-6.062 v -30.313 c 0,-3.334 -2.728,-6.062 -6.062,-6.062 z"
         id="path4"
         inkscape:connector-curvature="0"
         style="fill:#ffca28" />
    </g>
    <g
       id="g4056"
       transform="matrix(2,0,0,2,14.000148,1010.3622)"
       style="opacity:0.05;fill:#000000;fill-opacity:1;filter:url(#filter4149)">
      <path
         sodipodi:nodetypes="cssccccsscc"
         inkscape:connector-curvature="0"
         id="rect2989"
         d="m 3,7 v 6 c 0,1.108 0.892,2 2,2 h 1.499926 v -5 h 3 v 5 H 11 c 1.108,0 2,-0.892 2,-2 V 7 Z"
         style="fill:#000000;fill-opacity:1" />
      <path
         sodipodi:nodetypes="ccccccc"
         inkscape:connector-curvature="0"
         id="path3761"
         d="M 3,6 C 0.79661017,8 0,8 3,8 h 10 c 3,0 2.288136,0 0,-2 L 9,2 C 8,1 8,1 7,2 Z"
         style="fill:#000000;fill-opacity:1;stroke:none" />
      <path
         sodipodi:nodetypes="ssccss"
         inkscape:connector-curvature="0"
         id="rect3763"
         d="m 12,2 c 1,0 1,0.446 1,1 V 7 H 11 V 3 c 0,-0.554 0,-1 1,-1 z"
         style="fill:#000000;fill-opacity:1;stroke:none" />
    </g>
    <g
       style="opacity:1;fill:#ffffff;fill-opacity:1"
       transform="matrix(2,0,0,2,14.000148,1010.3622)"
       id="g4153">
      <path
         style="fill:#ffffff;fill-opacity:1"
         d="m 3,7 v 6 c 0,1.108 0.892,2 2,2 h 1.499926 v -5 h 3 v 5 H 11 c 1.108,0 2,-0.892 2,-2 V 7 Z"
         id="path4155"
         inkscape:connector-curvature="0"
         sodipodi:nodetypes="cssccccsscc" />
      <path
         style="fill:#ffffff;fill-opacity:1;stroke:none"
         d="M 3,6 C 0.79661017,8 0,8 3,8 h 10 c 3,0 2.288136,0 0,-2 L 9,2 C 8,1 8,1 7,2 Z"
         id="path4157"
         inkscape:connector-curvature="0"
         sodipodi:nodetypes="ccccccc" />
      <path
         style="fill:#ffffff;fill-opacity:1;stroke:none"
         d="m 12,2 c 1,0 1,0.446 1,1 V 7 H 11 V 3 c 0,-0.554 0,-1 1,-1 z"
         id="path4159"
         inkscape:connector-curvature="0"
         sodipodi:nodetypes="ssccss" />
    </g>
  </g>
</svg>
