<svg width="400" height="400" version="1.1" viewBox="0 0 400 400" xmlns="http://www.w3.org/2000/svg" xmlns:osb="http://www.openswatchbook.org/uri/2009/osb" xmlns:xlink="http://www.w3.org/1999/xlink">
 <rect width="200" height="400" fill="url(#color-bg)"/>
 <rect x="200" width="200" height="400" fill="url(#color-bg-dark)"/>
 <defs>
  <linearGradient id="color-fg">
   <stop stop-opacity=".87" offset="0"/>
  </linearGradient>
  <linearGradient id="color-fg-dark">
   <stop stop-color="#fff" offset="0"/>
  </linearGradient>
  <linearGradient id="color-fg-secondary">
   <stop stop-opacity=".54" offset="0"/>
  </linearGradient>
  <linearGradient id="color-fg-secondary-dark">
   <stop stop-color="#fff" stop-opacity=".7" offset="0"/>
  </linearGradient>
  <linearGradient id="color-fg-secondary-disabled">
   <stop stop-opacity=".26" offset="0"/>
  </linearGradient>
  <linearGradient id="color-fg-secondary-disabled-dark">
   <stop stop-color="#fff" stop-opacity=".3" offset="0"/>
  </linearGradient>
  <linearGradient id="color-divider">
   <stop stop-opacity=".12" offset="0"/>
  </linearGradient>
  <linearGradient id="color-divider-dark">
   <stop stop-color="#fff" stop-opacity=".12" offset="0"/>
  </linearGradient>
  <linearGradient id="color-accent">
   <stop stop-color="#FFAC00" offset="0"/>
  </linearGradient>
  <linearGradient id="color-accent-disabled">
   <stop stop-color="#FFAC00" stop-opacity=".5" offset="0"/>
  </linearGradient>
  <linearGradient id="color-bg">
   <stop stop-color="#F5F5F5" offset="0"/>
  </linearGradient>
  <linearGradient id="color-bg-dark">
   <stop stop-color="#333e43" offset="0"/>
  </linearGradient>
  <linearGradient id="color-bg-lighter">
   <stop stop-color="#FAFAFA" offset="0"/>
  </linearGradient>
  <linearGradient id="color-bg-lighter-dark">
   <stop stop-color="#414f56" offset="0"/>
  </linearGradient>
  <linearGradient id="color-base-dark">
   <stop stop-color="#3b484e" offset="0"/>
  </linearGradient>
  <filter id="f" x="0" y="0" width="1" height="1" color-interpolation-filters="sRGB">
   <feFlood flood-color="#000000" flood-opacity=".12" result="flood"/>
   <feComposite in="flood" in2="SourceGraphic" operator="in" result="composite1"/>
   <feGaussianBlur in="composite1" result="blur" stdDeviation="1.5"/>
   <feOffset dx="0" dy="1" result="offset"/>
   <feComposite in="SourceGraphic" in2="offset" result="fbSourceGraphic"/>
   <feFlood flood-color="#000000" flood-opacity=".24" result="flood"/>
   <feComposite in="flood" in2="fbSourceGraphic" operator="in" result="composite1"/>
   <feGaussianBlur in="composite1" result="blur" stdDeviation="1"/>
   <feOffset dx="0" dy="1" result="offset"/>
   <feComposite in="fbSourceGraphic" in2="offset" result="composite2"/>
  </filter>
  <filter id="e" x="0" y="0" width="1" height="1" color-interpolation-filters="sRGB">
   <feFlood flood-color="#000000" flood-opacity=".16" result="flood"/>
   <feComposite in="flood" in2="SourceGraphic" operator="in" result="composite1"/>
   <feGaussianBlur in="composite1" result="blur" stdDeviation="3"/>
   <feOffset dx="0" dy="3" result="offset"/>
   <feComposite in="SourceGraphic" in2="offset" result="fbSourceGraphic"/>
   <feFlood flood-color="#000000" flood-opacity=".23" result="flood"/>
   <feComposite in="flood" in2="fbSourceGraphic" operator="in" result="composite1"/>
   <feGaussianBlur in="composite1" result="blur" stdDeviation="3"/>
   <feOffset dx="0" dy="3" result="offset"/>
   <feComposite in="fbSourceGraphic" in2="offset" result="composite2"/>
  </filter>
  <path id="checkbox-unchecked-path" d="M19 5v14H5V5h14m0-2H5c-1.1 0-2 .9-2 2v14c0 1.1.9 2 2 2h14c1.1 0 2-.9 2-2V5c0-1.1-.9-2-2-2z"/>
  <path id="checkbox-checked-path" d="M19 3H5c-1.11 0-2 .9-2 2v14c0 1.1.89 2 2 2h14c1.11 0 2-.9 2-2V5c0-1.1-.89-2-2-2zm-9 14l-5-5 1.41-1.41L10 14.17l7.59-7.59L19 8l-9 9z"/>
  <path id="checkbox-mixed-path" d="M19 3H5c-1.1 0-2 .9-2 2v14c0 1.1.9 2 2 2h14c1.1 0 2-.9 2-2V5c0-1.1-.9-2-2-2zm-2 10H7v-2h10v2z"/>
  <path id="radio-unchecked-path" d="M12 2C6.48 2 2 6.48 2 12s4.48 10 10 10 10-4.48 10-10S17.52 2 12 2zm0 18c-4.42 0-8-3.58-8-8s3.58-8 8-8 8 3.58 8 8-3.58 8-8 8z"/>
  <path id="radio-checked-path" d="M12 7c-2.76 0-5 2.24-5 5s2.24 5 5 5 5-2.24 5-5-2.24-5-5-5zm0-5C6.48 2 2 6.48 2 12s4.48 10 10 10 10-4.48 10-10S17.52 2 12 2zm0 18c-4.42 0-8-3.58-8-8s3.58-8 8-8 8 3.58 8 8-3.58 8-8 8z"/>
  <path id="radio-mixed-path" d="m12 2c-5.52 0-10 4.48-10 10s4.48 10 10 10 10-4.48 10-10-4.48-10-10-10zm0 2c4.42 0 8 3.58 8 8s-3.58 8-8 8-8-3.58-8-8 3.58-8 8-8zm-5 7v2h10v-2h-10z"/>
  <path id="menu-checkbox-unchecked-path" d="m2 0a2 2 0 0 0-2 2v12a2 2 0 0 0 2 2h12a2 2 0 0 0 2-2v-12a2 2 0 0 0-2-2h-12zm0 2h12v12h-12v-12z"/>
  <path id="menu-checkbox-checked-path" d="m2 0a2 2 0 0 0-2 2v12a2 2 0 0 0 2 2h12a2 2 0 0 0 2-2v-12a2 2 0 0 0-2-2h-12zm10.6 3.59 1.41 1.41-8 8-4-4 1.41-1.41 2.59 2.59 6.59-6.59z"/>
  <path id="menu-checkbox-mixed-path" d="m2 0a2 2 0 0 0-2 2v12a2 2 0 0 0 2 2h12a2 2 0 0 0 2-2v-12a2 2 0 0 0-2-2h-12zm2 7h8v2h-8v-2z"/>
  <path id="menu-radio-unchecked-path" d="m8 0a8 8 0 0 0-8 8 8 8 0 0 0 8 8 8 8 0 0 0 8-8 8 8 0 0 0-8-8zm0 2a6 6 0 0 1 6 6 6 6 0 0 1-6 6 6 6 0 0 1-6-6 6 6 0 0 1 6-6z"/>
  <path id="menu-radio-checked-path" d="m8 0a8 8 0 0 0-8 8 8 8 0 0 0 8 8 8 8 0 0 0 8-8 8 8 0 0 0-8-8zm0 2a6 6 0 0 1 6 6 6 6 0 0 1-6 6 6 6 0 0 1-6-6 6 6 0 0 1 6-6zm0 2a4 4 0 0 0-4 4 4 4 0 0 0 4 4 4 4 0 0 0 4-4 4 4 0 0 0-4-4z"/>
  <path id="menu-radio-mixed-path" d="m8 0a8 8 0 0 0-8 8 8 8 0 0 0 8 8 8 8 0 0 0 8-8 8 8 0 0 0-8-8zm0 2a6 6 0 0 1 6 6 6 6 0 0 1-6 6 6 6 0 0 1-6-6 6 6 0 0 1 6-6zm-4 5v2h8v-2h-8z"/>
  <rect id="button-fill" width="24" height="24" rx="2" ry="2"/>
  <path id="check-path" d="M9 16.17L4.83 12l-1.42 1.41L9 19 21 7l-1.41-1.41z"/>
  <path id="slider-fill" d="M 21,10.5 A 10.5,10.5 0 0 1 10.5,21 10.5,10.5 0 0 1 0,10.5 10.5,10.5 0 0 1 10.5,0 10.5,10.5 0 0 1 21,10.5 Z"/>
  <path id="slider-stroke" d="m10.5 0a10.5 10.5 0 0 0-10.5 10.5 10.5 10.5 0 0 0 10.5 10.5 10.5 10.5 0 0 0 10.5-10.5 10.5 10.5 0 0 0-10.5-10.5zm0 3a7.5 7.5 0 0 1 7.5 7.5 7.5 7.5 0 0 1-7.5 7.5 7.5 7.5 0 0 1-7.5-7.5 7.5 7.5 0 0 1 7.5-7.5z"/>
  <path id="marks-slider-fill" d="m10.5 0a10.5 10.5 0 0 0-10.5 10.5 10.5 10.5 0 0 0 10.5 10.5h10.5v-10.5a10.5 10.5 0 0 0-10.5-10.5z"/>
  <path id="marks-slider-stroke" d="m10.5 0a10.5 10.5 0 0 0-10.5 10.5 10.5 10.5 0 0 0 10.5 10.5h10.5v-10.5a10.5 10.5 0 0 0-10.5-10.5zm0 3a7.5 7.5 0 0 1 7.5 7.5v7.5h-7.5a7.5 7.5 0 0 1-7.5-7.5 7.5 7.5 0 0 1 7.5-7.5z"/>
  <rect id="box-fill" width="32" height="32" rx="2" ry="2"/>
  <rect id="a" width="16" height="16" opacity="0"/>
  <rect id="c" width="21" height="21" opacity="0"/>
  <rect id="b" width="21" height="26" opacity="0"/>
  <rect id="d" width="40" height="40" opacity="0"/>
  <rect id="j" width="48" height="48" opacity="0"/>
  <g id="base-checkbox-unchecked">
   <use opacity="0" xlink:href="#button-fill"/>
   <use xlink:href="#checkbox-unchecked-path"/>
  </g>
  <g id="base-checkbox-unchecked-hover">
   <use opacity=".15" xlink:href="#button-fill"/>
   <use xlink:href="#checkbox-unchecked-path"/>
  </g>
  <g id="base-checkbox-unchecked-active">
   <use opacity=".3" xlink:href="#button-fill"/>
   <use xlink:href="#checkbox-unchecked-path"/>
  </g>
  <g id="base-checkbox-checked">
   <use opacity="0" xlink:href="#button-fill"/>
   <use xlink:href="#checkbox-checked-path"/>
  </g>
  <g id="base-checkbox-checked-hover">
   <use opacity=".15" xlink:href="#button-fill"/>
   <use xlink:href="#checkbox-checked-path"/>
  </g>
  <g id="base-checkbox-checked-active">
   <use opacity=".3" xlink:href="#button-fill"/>
   <use xlink:href="#checkbox-checked-path"/>
  </g>
  <g id="base-checkbox-mixed">
   <use opacity="0" xlink:href="#button-fill"/>
   <use xlink:href="#checkbox-mixed-path"/>
  </g>
  <g id="base-checkbox-mixed-hover">
   <use opacity=".15" xlink:href="#button-fill"/>
   <use xlink:href="#checkbox-mixed-path"/>
  </g>
  <g id="base-checkbox-mixed-active">
   <use opacity=".3" xlink:href="#button-fill"/>
   <use xlink:href="#checkbox-mixed-path"/>
  </g>
  <g id="base-radio-unchecked">
   <use opacity="0" xlink:href="#button-fill"/>
   <use xlink:href="#radio-unchecked-path"/>
  </g>
  <g id="base-radio-unchecked-hover">
   <use opacity=".15" xlink:href="#button-fill"/>
   <use xlink:href="#radio-unchecked-path"/>
  </g>
  <g id="base-radio-unchecked-active">
   <use opacity=".3" xlink:href="#button-fill"/>
   <use xlink:href="#radio-unchecked-path"/>
  </g>
  <g id="base-radio-checked">
   <use opacity="0" xlink:href="#button-fill"/>
   <use xlink:href="#radio-checked-path"/>
  </g>
  <g id="base-radio-checked-hover">
   <use opacity=".15" xlink:href="#button-fill"/>
   <use xlink:href="#radio-checked-path"/>
  </g>
  <g id="base-radio-checked-active">
   <use opacity=".3" xlink:href="#button-fill"/>
   <use xlink:href="#radio-checked-path"/>
  </g>
  <g id="base-radio-mixed">
   <use opacity="0" xlink:href="#button-fill"/>
   <use xlink:href="#radio-mixed-path"/>
  </g>
  <g id="base-radio-mixed-hover">
   <use opacity=".15" xlink:href="#button-fill"/>
   <use xlink:href="#radio-mixed-path"/>
  </g>
  <g id="base-radio-mixed-active">
   <use opacity=".3" xlink:href="#button-fill"/>
   <use xlink:href="#radio-mixed-path"/>
  </g>
  <g id="base-menu-checkbox-unchecked">
   <use xlink:href="#a"/>
   <use xlink:href="#menu-checkbox-unchecked-path"/>
  </g>
  <g id="base-menu-checkbox-checked">
   <use xlink:href="#a"/>
   <use xlink:href="#menu-checkbox-checked-path"/>
  </g>
  <g id="base-menu-checkbox-mixed">
   <use xlink:href="#a"/>
   <use xlink:href="#menu-checkbox-mixed-path"/>
  </g>
  <g id="base-menu-radio-unchecked">
   <use xlink:href="#a"/>
   <use xlink:href="#menu-radio-unchecked-path"/>
  </g>
  <g id="base-menu-radio-checked">
   <use xlink:href="#a"/>
   <use xlink:href="#menu-radio-checked-path"/>
  </g>
  <g id="base-menu-radio-mixed">
   <use xlink:href="#a"/>
   <use xlink:href="#menu-radio-mixed-path"/>
  </g>
  <g id="base-selectionmode-checkbox-unchecked">
   <use xlink:href="#d"/>
   <use transform="matrix(1.5 0 0 1.5 2 2)" xlink:href="#button-fill"/>
  </g>
  <g id="base-selectionmode-checkbox-checked">
   <use xlink:href="#d"/>
   <use transform="matrix(1.5 0 0 1.5 2 2)" fill="url(#color-accent)" xlink:href="#button-fill"/>
   <use transform="matrix(1.5 0 0 1.5 2 2)" fill="url(#color-fg-dark)" xlink:href="#check-path"/>
  </g>
  <g id="base-scale-slider">
   <use xlink:href="#c"/>
   <use fill="url(#color-accent)" xlink:href="#slider-fill"/>
  </g>
  <g id="base-scale-slider-disabled">
   <use xlink:href="#c"/>
   <use fill="url(#color-bg)" xlink:href="#slider-fill"/>
   <use fill="url(#color-divider)" xlink:href="#slider-stroke"/>
  </g>
  <g id="base-scale-slider-disabled-dark">
   <use xlink:href="#c"/>
   <use fill="url(#color-bg-dark)" xlink:href="#slider-fill"/>
   <use fill="url(#color-divider-dark)" xlink:href="#slider-stroke"/>
  </g>
  <g id="base-scale-horz-marks-after-slider">
   <use xlink:href="#b"/>
   <use transform="rotate(45 10.5 10.5)" fill="url(#color-accent)" xlink:href="#marks-slider-fill"/>
  </g>
  <use id="base-scale-vert-marks-before-slider" transform="rotate(90 10.5 10.5)" xlink:href="#base-scale-horz-marks-after-slider"/>
  <use id="base-scale-horz-marks-before-slider" transform="rotate(180 10.5 10.5)" xlink:href="#base-scale-horz-marks-after-slider"/>
  <use id="base-scale-vert-marks-after-slider" transform="rotate(270 10.5 10.5)" xlink:href="#base-scale-horz-marks-after-slider"/>
  <g id="base-scale-horz-marks-after-slider-disabled">
   <use xlink:href="#b"/>
   <use transform="rotate(45 10.5 10.5)" fill="url(#color-bg)" xlink:href="#marks-slider-fill"/>
   <use transform="rotate(45 10.5 10.5)" fill="url(#color-divider)" xlink:href="#marks-slider-stroke"/>
  </g>
  <use id="base-scale-vert-marks-before-slider-disabled" transform="rotate(90 10.5 10.5)" xlink:href="#base-scale-horz-marks-after-slider-disabled"/>
  <use id="base-scale-horz-marks-before-slider-disabled" transform="rotate(180 10.5 10.5)" xlink:href="#base-scale-horz-marks-after-slider-disabled"/>
  <use id="base-scale-vert-marks-after-slider-disabled" transform="rotate(270 10.5 10.5)" xlink:href="#base-scale-horz-marks-after-slider-disabled"/>
  <g id="base-scale-horz-marks-after-slider-disabled-dark">
   <use xlink:href="#b"/>
   <use transform="rotate(45 10.5 10.5)" fill="url(#color-bg-dark)" xlink:href="#marks-slider-fill"/>
   <use transform="rotate(45 10.5 10.5)" fill="url(#color-divider-dark)" xlink:href="#marks-slider-stroke"/>
  </g>
  <use id="base-scale-vert-marks-before-slider-disabled-dark" transform="rotate(90 10.5 10.5)" xlink:href="#base-scale-horz-marks-after-slider-disabled-dark"/>
  <use id="base-scale-horz-marks-before-slider-disabled-dark" transform="rotate(180 10.5 10.5)" xlink:href="#base-scale-horz-marks-after-slider-disabled-dark"/>
  <use id="base-scale-vert-marks-after-slider-disabled-dark" transform="rotate(270 10.5 10.5)" xlink:href="#base-scale-horz-marks-after-slider-disabled-dark"/>
  <g id="base-box">
   <use xlink:href="#j"/>
   <use x="8" y="8" xlink:href="#box-fill"/>
  </g>
  <linearGradient id="i" x1="1296" x2="1308" y1="255" y2="255" gradientTransform="matrix(1.3333 0 0 1.3333 -434 -85)" gradientUnits="userSpaceOnUse" xlink:href="#color-accent"/>
  <linearGradient id="h" x1="1296" x2="1308" y1="255" y2="255" gradientTransform="matrix(1.3333 0 0 1.3333 -434 -85)" gradientUnits="userSpaceOnUse" xlink:href="#color-accent"/>
  <linearGradient id="g" x1="1296" x2="1308" y1="255" y2="255" gradientTransform="matrix(1.3333 0 0 1.3333 -434 -85)" gradientUnits="userSpaceOnUse" xlink:href="#color-accent"/>
 </defs>
 <use id="checkbox-unchecked" x="8" y="8" fill="url(#color-fg-secondary)" xlink:href="#base-checkbox-unchecked"/>
 <use id="checkbox-unchecked-hover" x="8" y="40" fill="url(#color-fg)" xlink:href="#base-checkbox-unchecked-hover"/>
 <use id="checkbox-unchecked-active" x="8" y="72" fill="url(#color-fg)" xlink:href="#base-checkbox-unchecked-active"/>
 <use id="checkbox-unchecked-disabled" x="8" y="104" fill="url(#color-fg-secondary-disabled)" xlink:href="#base-checkbox-unchecked"/>
 <g fill="url(#color-accent)">
  <use id="checkbox-checked" x="40" y="8" xlink:href="#base-checkbox-checked"/>
  <use id="checkbox-checked-hover" x="40" y="40" xlink:href="#base-checkbox-checked-hover"/>
  <use id="checkbox-checked-active" x="40" y="72" xlink:href="#base-checkbox-checked-active"/>
 </g>
 <use id="checkbox-checked-disabled" x="40" y="104" fill="url(#color-accent-disabled)" xlink:href="#base-checkbox-checked"/>
 <g fill="url(#color-accent)">
  <use id="checkbox-mixed" x="72" y="8" xlink:href="#base-checkbox-mixed"/>
  <use id="checkbox-mixed-hover" x="72" y="40" xlink:href="#base-checkbox-mixed-hover"/>
  <use id="checkbox-mixed-active" x="72" y="72" xlink:href="#base-checkbox-mixed-active"/>
 </g>
 <use id="checkbox-mixed-disabled" x="72" y="104" fill="url(#color-accent-disabled)" xlink:href="#base-checkbox-mixed"/>
 <use id="radio-unchecked" x="104" y="8" fill="url(#color-fg-secondary)" xlink:href="#base-radio-unchecked"/>
 <use id="radio-unchecked-hover" x="104" y="40" fill="url(#color-fg)" xlink:href="#base-radio-unchecked-hover"/>
 <use id="radio-unchecked-active" x="104" y="72" fill="url(#color-fg)" xlink:href="#base-radio-unchecked-active"/>
 <use id="radio-unchecked-disabled" x="104" y="104" fill="url(#color-fg-secondary-disabled)" xlink:href="#base-radio-unchecked"/>
 <g fill="url(#color-accent)">
  <use id="radio-checked" x="136" y="8" xlink:href="#base-radio-checked"/>
  <use id="radio-checked-hover" x="136" y="40" xlink:href="#base-radio-checked-hover"/>
  <use id="radio-checked-active" x="136" y="72" xlink:href="#base-radio-checked-active"/>
 </g>
 <use id="radio-checked-disabled" x="136" y="104" fill="url(#color-accent-disabled)" xlink:href="#base-radio-checked"/>
 <g fill="url(#color-accent)">
  <use id="radio-mixed" x="168" y="8" xlink:href="#base-radio-mixed"/>
  <use id="radio-mixed-hover" x="168" y="40" xlink:href="#base-radio-mixed-hover"/>
  <use id="radio-mixed-active" x="168" y="72" xlink:href="#base-radio-mixed-active"/>
 </g>
 <use id="radio-mixed-disabled" x="168" y="104" fill="url(#color-accent-disabled)" xlink:href="#base-radio-mixed"/>
 <use id="menu-checkbox-unchecked" x="12" y="136" fill="url(#color-fg-secondary)" xlink:href="#base-menu-checkbox-unchecked"/>
 <use id="menu-checkbox-unchecked-disabled" x="12" y="160" fill="url(#color-fg-secondary-disabled)" xlink:href="#base-menu-checkbox-unchecked"/>
 <use id="menu-checkbox-checked" x="44" y="136" fill="url(#color-accent)" xlink:href="#base-menu-checkbox-checked"/>
 <use id="menu-checkbox-checked-disabled" x="44" y="160" fill="url(#color-accent-disabled)" xlink:href="#base-menu-checkbox-checked"/>
 <use id="menu-checkbox-mixed" x="76" y="136" fill="url(#color-accent)" xlink:href="#base-menu-checkbox-mixed"/>
 <use id="menu-checkbox-mixed-disabled" x="76" y="160" fill="url(#color-accent-disabled)" xlink:href="#base-menu-checkbox-mixed"/>
 <use id="menu-radio-unchecked" x="108" y="136" fill="url(#color-fg-secondary)" xlink:href="#base-menu-radio-unchecked"/>
 <use id="menu-radio-unchecked-disabled" x="108" y="160" fill="url(#color-fg-secondary-disabled)" xlink:href="#base-menu-radio-unchecked"/>
 <use id="menu-radio-checked" x="140" y="136" fill="url(#color-accent)" xlink:href="#base-menu-radio-checked"/>
 <use id="menu-radio-checked-disabled" x="140" y="160" fill="url(#color-accent-disabled)" xlink:href="#base-menu-radio-checked"/>
 <use id="menu-radio-mixed" x="172" y="136" fill="url(#color-accent)" xlink:href="#base-menu-radio-mixed"/>
 <use id="menu-radio-mixed-disabled" x="172" y="160" fill="url(#color-accent-disabled)" xlink:href="#base-menu-radio-mixed"/>
 <use id="selectionmode-checkbox-unchecked" x="8" y="184" fill="url(#color-bg-lighter)" xlink:href="#base-selectionmode-checkbox-unchecked"/>
 <use id="selectionmode-checkbox-checked" x="56" y="184" xlink:href="#base-selectionmode-checkbox-checked"/>
 <use id="scale-slider" x="16" y="240" xlink:href="#base-scale-slider"/>
 <use id="scale-slider-disabled" x="16" y="280" xlink:href="#base-scale-slider-disabled"/>
 <use id="scale-horz-marks-before-slider" x="52" y="240" xlink:href="#base-scale-horz-marks-before-slider"/>
 <use id="scale-horz-marks-before-slider-disabled" x="52" y="280" xlink:href="#base-scale-horz-marks-before-slider-disabled"/>
 <use id="scale-horz-marks-after-slider" x="88" y="240" xlink:href="#base-scale-horz-marks-after-slider"/>
 <use id="scale-horz-marks-after-slider-disabled" x="88" y="280" xlink:href="#base-scale-horz-marks-after-slider-disabled"/>
 <use id="scale-vert-marks-before-slider" x="124" y="240" xlink:href="#base-scale-vert-marks-before-slider"/>
 <use id="scale-vert-marks-before-slider-disabled" x="124" y="280" xlink:href="#base-scale-vert-marks-before-slider-disabled"/>
 <use id="scale-vert-marks-after-slider" x="160" y="240" xlink:href="#base-scale-vert-marks-after-slider"/>
 <use id="scale-vert-marks-after-slider-disabled" x="160" y="280" xlink:href="#base-scale-vert-marks-after-slider-disabled"/>
 <use id="box-shadow" x="8" y="320" fill="url(#color-fg-dark)" filter="url(#e)" xlink:href="#base-box"/>
 <use id="box-shadow-backdrop" x="64" y="320" fill="url(#color-fg-dark)" filter="url(#f)" xlink:href="#base-box"/>
 <use id="checkbox-unchecked-dark" x="208" y="8" fill="url(#color-fg-secondary-dark)" xlink:href="#base-checkbox-unchecked"/>
 <use id="checkbox-unchecked-hover-dark" x="208" y="40" fill="url(#color-fg-dark)" xlink:href="#base-checkbox-unchecked-hover"/>
 <use id="checkbox-unchecked-active-dark" x="208" y="72" fill="url(#color-fg-dark)" xlink:href="#base-checkbox-unchecked-active"/>
 <use id="checkbox-unchecked-disabled-dark" x="208" y="104" fill="url(#color-fg-secondary-disabled-dark)" xlink:href="#base-checkbox-unchecked"/>
 <g fill="url(#color-accent)">
  <use id="checkbox-checked-dark" x="240" y="8" xlink:href="#base-checkbox-checked"/>
  <use id="checkbox-checked-hover-dark" x="240" y="40" xlink:href="#base-checkbox-checked-hover"/>
  <use id="checkbox-checked-active-dark" x="240" y="72" xlink:href="#base-checkbox-checked-active"/>
 </g>
 <use id="checkbox-checked-disabled-dark" x="240" y="104" fill="url(#color-accent-disabled)" xlink:href="#base-checkbox-checked"/>
 <g fill="url(#color-accent)">
  <use id="checkbox-mixed-dark" x="272" y="8" xlink:href="#base-checkbox-mixed"/>
  <use id="checkbox-mixed-hover-dark" x="272" y="40" xlink:href="#base-checkbox-mixed-hover"/>
  <use id="checkbox-mixed-active-dark" x="272" y="72" xlink:href="#base-checkbox-mixed-active"/>
 </g>
 <use id="checkbox-mixed-disabled-dark" x="272" y="104" fill="url(#color-accent-disabled)" xlink:href="#base-checkbox-mixed"/>
 <use id="radio-unchecked-dark" x="304" y="8" fill="url(#color-fg-secondary-dark)" xlink:href="#base-radio-unchecked"/>
 <use id="radio-unchecked-hover-dark" x="304" y="40" fill="url(#color-fg-dark)" xlink:href="#base-radio-unchecked-hover"/>
 <use id="radio-unchecked-active-dark" x="304" y="72" fill="url(#color-fg-dark)" xlink:href="#base-radio-unchecked-active"/>
 <use id="radio-unchecked-disabled-dark" x="304" y="104" fill="url(#color-fg-secondary-disabled-dark)" xlink:href="#base-radio-unchecked"/>
 <g fill="url(#color-accent)">
  <use id="radio-checked-dark" x="336" y="8" xlink:href="#base-radio-checked"/>
  <use id="radio-checked-hover-dark" x="336" y="40" xlink:href="#base-radio-checked-hover"/>
  <use id="radio-checked-active-dark" x="336" y="72" xlink:href="#base-radio-checked-active"/>
 </g>
 <use id="radio-checked-disabled-dark" x="336" y="104" fill="url(#color-accent-disabled)" xlink:href="#base-radio-checked"/>
 <g fill="url(#color-accent)">
  <use id="radio-mixed-dark" x="368" y="8" xlink:href="#base-radio-mixed"/>
  <use id="radio-mixed-hover-dark" x="368" y="40" xlink:href="#base-radio-mixed-hover"/>
  <use id="radio-mixed-active-dark" x="368" y="72" xlink:href="#base-radio-mixed-active"/>
 </g>
 <use id="radio-mixed-disabled-dark" x="368" y="104" fill="url(#color-accent-disabled)" xlink:href="#base-radio-mixed"/>
 <use id="menu-checkbox-unchecked-dark" x="212" y="136" fill="url(#color-fg-secondary-dark)" xlink:href="#base-menu-checkbox-unchecked"/>
 <use id="menu-checkbox-unchecked-disabled-dark" x="212" y="160" fill="url(#color-fg-secondary-disabled-dark)" xlink:href="#base-menu-checkbox-unchecked"/>
 <use id="menu-checkbox-checked-dark" x="244" y="136" fill="url(#color-accent)" xlink:href="#base-menu-checkbox-checked"/>
 <use id="menu-checkbox-checked-disabled-dark" x="244" y="160" fill="url(#color-accent-disabled)" xlink:href="#base-menu-checkbox-checked"/>
 <use id="menu-checkbox-mixed-dark" x="276" y="136" fill="url(#color-accent)" xlink:href="#base-menu-checkbox-mixed"/>
 <use id="menu-checkbox-mixed-disabled-dark" x="276" y="160" fill="url(#color-accent-disabled)" xlink:href="#base-menu-checkbox-mixed"/>
 <use id="menu-radio-unchecked-dark" x="308" y="136" fill="url(#color-fg-secondary-dark)" xlink:href="#base-menu-radio-unchecked"/>
 <use id="menu-radio-unchecked-disabled-dark" x="308" y="160" fill="url(#color-fg-secondary-disabled-dark)" xlink:href="#base-menu-radio-unchecked"/>
 <use id="menu-radio-checked-dark" x="340" y="136" fill="url(#color-accent)" xlink:href="#base-menu-radio-checked"/>
 <use id="menu-radio-checked-disabled-dark" x="340" y="160" fill="url(#color-accent-disabled)" xlink:href="#base-menu-radio-checked"/>
 <use id="menu-radio-mixed-dark" x="372" y="136" fill="url(#color-accent)" xlink:href="#base-menu-radio-mixed"/>
 <use id="menu-radio-mixed-disabled-dark" x="372" y="160" fill="url(#color-accent-disabled)" xlink:href="#base-menu-radio-mixed"/>
 <use id="selectionmode-checkbox-unchecked-dark" x="208" y="184" fill="url(#color-bg-lighter-dark)" xlink:href="#base-selectionmode-checkbox-unchecked"/>
 <use id="selectionmode-checkbox-checked-dark" x="256" y="184" xlink:href="#base-selectionmode-checkbox-checked"/>
 <use id="scale-slider-dark" x="216" y="240" xlink:href="#base-scale-slider"/>
 <use id="scale-slider-disabled-dark" x="216" y="280" xlink:href="#base-scale-slider-disabled-dark"/>
 <use id="scale-horz-marks-before-slider-dark" x="252" y="240" xlink:href="#base-scale-horz-marks-before-slider"/>
 <use id="scale-horz-marks-before-slider-disabled-dark" x="252" y="280" xlink:href="#base-scale-horz-marks-before-slider-disabled-dark"/>
 <use id="scale-horz-marks-after-slider-dark" x="288" y="240" xlink:href="#base-scale-horz-marks-after-slider"/>
 <use id="scale-horz-marks-after-slider-disabled-dark" x="288" y="280" xlink:href="#base-scale-horz-marks-after-slider-disabled-dark"/>
 <use id="scale-vert-marks-before-slider-dark" x="324" y="240" xlink:href="#base-scale-vert-marks-before-slider"/>
 <use id="scale-vert-marks-before-slider-disabled-dark" x="324" y="280" xlink:href="#base-scale-vert-marks-before-slider-disabled-dark"/>
 <use id="scale-vert-marks-after-slider-dark" x="360" y="240" xlink:href="#base-scale-vert-marks-after-slider"/>
 <use id="scale-vert-marks-after-slider-disabled-dark" x="360" y="280" xlink:href="#base-scale-vert-marks-after-slider-disabled-dark"/>
 <use id="box-shadow-dark" x="208" y="320" fill="url(#color-base-dark)" filter="url(#e)" xlink:href="#base-box"/>
 <use id="box-shadow-backdrop-dark" x="264" y="320" fill="url(#color-base-dark)" filter="url(#f)" xlink:href="#base-box"/>
 <g id="titlebutton-maximize" transform="translate(-47 193.64)">
  <g transform="translate(-781 -432.64)">
   <ellipse cx="1302" cy="255" rx="8" ry="8" fill="#b2b2b2" opacity=".95"/>
   <g transform="translate(1294,247)" fill="#c0e3ff"></g>
  </g>
  <rect x="513" y="-185.64" width="16" height="16" fill="none"/>
 </g>
 <g id="titlebutton-minimize" transform="translate(-40 193.64)">
  <g transform="translate(-781 -432.64)">
   <ellipse cx="1273" cy="255" rx="8" ry="8" fill="#b2b2b2" opacity=".95"/>
   <g transform="translate(1265,247)" fill="#c0e3ff"></g>
  </g>
  <rect x="484" y="-185.64" width="16" height="16" fill="none"/>
 </g>
 <g id="titlebutton-close" transform="translate(423.38 163.64)">
  <g transform="translate(-1207.4 -402.64)">
   <ellipse cx="1302" cy="255" rx="8" ry="8" fill="url(#h)" opacity=".95"/>
   <g transform="translate(1294,247)" fill="#c0e3ff"></g>
  </g>
  <rect x="86.625" y="-155.64" width="16" height="16" fill="none"/>
 </g>
 <g id="titlebutton-maximize-hover" transform="translate(-47 237.64)">
  <g transform="translate(-781 -432.64)">
   <ellipse cx="1302" cy="255" rx="8" ry="8" fill="#b2b2b2" fill-opacity=".96838" opacity=".95"/>
   <g transform="translate(1294,247)" fill="#c0e3ff">
    <g transform="translate(-81 -967)" fill="#c0e3ff">
     <path d="m87.8 972h3.3817c0.4503 0 0.81623 0.36847 0.81876 0.8188v3.3817zm2.4074 6.0069h-3.3951c-0.45035 0-0.81876-0.36842-0.81876-0.81875v-3.3951l4.2138 4.2138" fill="#000" fill-rule="evenodd" opacity=".5"/>
    </g>
   </g>
  </g>
  <rect x="513" y="-185.64" width="16" height="16" fill="none"/>
 </g>
 <g id="titlebutton-minimize-hover" transform="translate(-40 237.64)">
  <g transform="translate(-781 -432.64)">
   <ellipse cx="1273" cy="255" rx="8" ry="8" fill="#b2b2b2" fill-opacity=".96838" opacity=".95"/>
   <g transform="translate(1265,247)" fill="#c0e3ff">
    <g transform="translate(-81 -967)" fill="#c0e3ff">
     <path d="m86 974v2h6v-2z" color="#000000" fill="#000" opacity=".5" style="text-decoration-line:none;text-indent:0;text-transform:none"/>
    </g>
   </g>
  </g>
  <rect x="484" y="-185.64" width="16" height="16" fill="none"/>
 </g>
 <g id="titlebutton-close-hover" transform="translate(423.38 207.64)">
  <g transform="translate(-1207.4 -402.64)">
   <circle cx="1302" cy="255" r="8" fill="url(#g)" opacity=".95"/>
   <g transform="translate(1294,247)" fill="#c0e3ff"></g>
  </g>
  <path d="m91.626-150.64h0.75c8e-3 -9e-5 0.0156-3.5e-4 0.0234 0 0.19122 8e-3 0.3824 0.0964 0.51563 0.23437l1.7109 1.7109 1.7344-1.7109c0.19922-0.17287 0.335-0.22912 0.51562-0.23437h0.75v0.75c0 0.21485-0.0257 0.41298-0.1875 0.5625l-1.7109 1.7109 1.6875 1.6875c0.14114 0.14113 0.21093 0.34009 0.21093 0.53907v0.75h-0.75c-0.19897-1e-5 -0.39793-0.0698-0.53906-0.21094l-1.7109-1.7109-1.7109 1.7109c-0.14113 0.14114-0.3401 0.21094-0.53907 0.21094h-0.75v-0.75c0-0.19897 0.0698-0.39794 0.21094-0.53907l1.7109-1.6875-1.7109-1.7109c-0.15805-0.14598-0.22737-0.35194-0.21094-0.5625v-0.75z" color="#bebebe" enable-background="new" opacity=".5" style="text-decoration-line:none;text-indent:0;text-transform:none"/>
  <rect x="86.625" y="-155.64" width="16" height="16" fill="none"/>
 </g>
 <g id="titlebutton-maximize-active" transform="translate(-47 261.64)">
  <g transform="translate(-781 -432.64)">
   <ellipse cx="1302" cy="255" rx="8" ry="8" fill="#b3b3b3" opacity=".95"/>
   <g transform="translate(1294,247)" fill="#c0e3ff">
    <g transform="translate(-81 -967)" fill="#c0e3ff">
     <path d="m87.8 972h3.3817c0.4503 0 0.81623 0.36847 0.81876 0.8188v3.3817zm2.4074 6.0069h-3.3951c-0.45035 0-0.81876-0.36842-0.81876-0.81875v-3.3951l4.2138 4.2138" fill="#000" fill-rule="evenodd" opacity=".65"/>
    </g>
   </g>
  </g>
  <rect x="513" y="-185.64" width="16" height="16" fill="none"/>
 </g>
 <g id="titlebutton-minimize-active" transform="translate(-40 261.64)">
  <g transform="translate(-781 -432.64)">
   <circle cx="1273" cy="255" r="8" fill="#b3b3b3" opacity=".95"/>
   <g transform="translate(1265,247)" fill="#c0e3ff">
    <g transform="translate(-81 -967)" fill="#c0e3ff">
     <path d="m86 974v2h6v-2z" color="#000000" fill="#000" opacity=".65" style="text-decoration-line:none;text-indent:0;text-transform:none"/>
    </g>
   </g>
  </g>
  <rect x="484" y="-185.64" width="16" height="16" fill="none"/>
 </g>
 <g id="titlebutton-close-active" transform="translate(423.38 231.64)">
  <g transform="translate(-1207.4 -402.64)">
   <circle cx="1302" cy="255" r="8" fill="url(#i)" opacity=".95"/>
   <g transform="translate(1294,247)" fill="#c0e3ff"></g>
  </g>
  <path d="m91.626-150.64h0.75c8e-3 -9e-5 0.0156-3.5e-4 0.0234 0 0.19122 8e-3 0.3824 0.0964 0.51563 0.23437l1.7109 1.7109 1.7344-1.7109c0.19922-0.17287 0.335-0.22912 0.51562-0.23437h0.75v0.75c0 0.21485-0.0257 0.41298-0.1875 0.5625l-1.7109 1.7109 1.6875 1.6875c0.14114 0.14113 0.21093 0.34009 0.21093 0.53907v0.75h-0.75c-0.19897-1e-5 -0.39793-0.0698-0.53906-0.21094l-1.7109-1.7109-1.7109 1.7109c-0.14113 0.14114-0.3401 0.21094-0.53907 0.21094h-0.75v-0.75c0-0.19897 0.0698-0.39794 0.21094-0.53907l1.7109-1.6875-1.7109-1.7109c-0.15805-0.14598-0.22737-0.35194-0.21094-0.5625v-0.75z" color="#bebebe" enable-background="new" opacity=".65" style="text-decoration-line:none;text-indent:0;text-transform:none"/>
  <rect x="86.625" y="-155.64" width="16" height="16" fill="none"/>
 </g>
 <g id="titlebutton-maximize-backdrop" transform="translate(-47 214.64)" opacity=".5">
  <g transform="translate(-781 -432.64)" opacity="1">
   <ellipse cx="1302" cy="255" rx="8" ry="8" fill="#b2b2b2" fill-opacity=".95294" opacity=".95"/>
   <g transform="translate(1294,247)" fill="#c0e3ff"></g>
  </g>
  <rect x="513" y="-185.64" width="16" height="16" fill="none" opacity="1"/>
 </g>
 <g id="titlebutton-minimize-backdrop" transform="translate(-40 214.55)" opacity=".5">
  <g transform="translate(-781 -432.64)" opacity="1">
   <ellipse cx="1273" cy="255" rx="7.9149" ry="7.9149" fill="#b2b2b2" fill-opacity=".95294" opacity=".95"/>
   <g transform="translate(1265,247)" fill="#c0e3ff" opacity="1"></g>
  </g>
  <rect x="484" y="-185.64" width="16" height="16" fill="none" opacity="1"/>
 </g>
 <g id="titlebutton-close-backdrop" transform="translate(423.38 184.64)" opacity=".5">
  <g transform="translate(-1207.4 -402.64)" opacity="1">
   <ellipse cx="1302" cy="255" rx="8" ry="8" fill="#b2b2b2" fill-opacity=".95294" opacity=".95"/>
   <g transform="translate(1294,247)" fill="#c0e3ff"></g>
  </g>
  <rect x="86.625" y="-155.64" width="16" height="16" fill="none" opacity="1"/>
 </g>
 <g id="titlebutton-restore-hover" transform="matrix(.72727 0 0 .72727 438.23 99.732)">
  <ellipse cx="79.428" cy="-54.631" rx="11" ry="11" fill="#b3b3b3" opacity=".95"/>
  <g transform="matrix(1.375 0 0 1.375 68.113 -65.785)" fill="#c0e3ff">
   <g transform="translate(-81 -967)" fill="#000" fill-rule="evenodd">
    <path d="m84.868 975.16h3.3817c0.4503 0 0.81623 0.36847 0.81876 0.8188v3.3817z" opacity=".5"/>
    <path d="m93.591 975.06h-3.3817c-0.4503 0-0.81623-0.36847-0.81876-0.8188v-3.3817z" opacity=".5"/>
   </g>
  </g>
  <rect x="68.428" y="-65.631" width="22" height="22" fill="none"/>
 </g>
 <g id="titlebutton-restore-active" transform="matrix(.72727 0 0 .72727 438.23 123.73)">
  <ellipse cx="79.428" cy="-54.631" rx="11" ry="11" fill="#b3b3b3" opacity=".95"/>
  <g transform="matrix(1.375 0 0 1.375 68.113 -65.785)" fill="#c0e3ff">
   <g transform="translate(-81 -967)" fill="#000" fill-opacity=".93333" fill-rule="evenodd">
    <path d="m84.868 975.16h3.3817c0.4503 0 0.81623 0.36847 0.81876 0.8188v3.3817z" opacity=".65"/>
    <path d="m93.591 975.06h-3.3817c-0.4503 0-0.81623-0.36847-0.81876-0.8188v-3.3817z" opacity=".65"/>
   </g>
  </g>
  <rect x="68.428" y="-65.631" width="22" height="22" fill="none"/>
 </g>
 <g id="titlebutton-restore" transform="translate(-25 193.64)">
  <g transform="translate(-781 -432.64)">
   <ellipse cx="1302" cy="255" rx="8" ry="8" fill="#b3b3b3" opacity=".95"/>
   <g transform="translate(1294,247)" fill="#c0e3ff"></g>
  </g>
  <rect x="513" y="-185.64" width="16" height="16" fill="none"/>
 </g>
 <g id="titlebutton-restore-backdrop" transform="translate(-25 214.64)" opacity=".5">
  <g transform="translate(-781 -432.64)" opacity="1">
   <circle cx="1302" cy="255" r="8" fill="#b2b2b2" fill-opacity=".95294" opacity=".95"/>
   <g transform="translate(1294,247)" fill="#c0e3ff"></g>
  </g>
  <rect x="513" y="-185.64" width="16" height="16" fill="none" opacity="1"/>
 </g>
</svg>
