<svg width="512" height="512" enable-background="new" version="1.0" xmlns="http://www.w3.org/2000/svg" xmlns:xlink="http://www.w3.org/1999/xlink">
 <defs>
  <filter id="a" x="-.024" y="-.024" width="1.048" height="1.048" color-interpolation-filters="sRGB">
   <feGaussianBlur stdDeviation="4.64"/>
  </filter>
  <filter id="d" x="-.024" y="-.024" width="1.048" height="1.048" color-interpolation-filters="sRGB">
   <feGaussianBlur stdDeviation="3.36"/>
  </filter>
  <filter id="c" x="-.024" y="-.024" width="1.048" height="1.048" color-interpolation-filters="sRGB">
   <feGaussianBlur stdDeviation="3.52"/>
  </filter>
  <filter id="b" x="-.06" y="-.06" width="1.12" height="1.12" color-interpolation-filters="sRGB">
   <feGaussianBlur stdDeviation="3.6"/>
  </filter>
 </defs>
 <g transform="translate(0,212)">
  <g>
   <g transform="translate(-208,16)">
    <g>
     <path d="m464-202c-48.501 0-93.427 14.745-130.58 40h-29.422c-17.728 0-32 14.272-32 32v29.422c-25.255 37.151-40 82.077-40 130.58s14.745 93.427 40 130.58v29.422c0 17.728 14.272 32 32 32h29.422c37.151 25.255 82.077 40 130.58 40s93.427-14.745 130.58-40h29.422c17.728 0 32-14.272 32-32v-29.422c25.255-37.151 40-82.077 40-130.58s-14.745-93.427-40-130.58v-29.422c0-17.728-14.272-32-32-32h-29.422c-37.151-25.255-82.077-40-130.58-40z" opacity=".2"/>
     <path d="m464-200c-48.501 0-93.427 14.745-130.58 40h-29.422c-17.728 0-32 14.272-32 32v29.422c-25.255 37.151-40 82.077-40 130.58s14.745 93.427 40 130.58v29.422c0 17.728 14.272 32 32 32h29.422c37.151 25.255 82.077 40 130.58 40s93.427-14.745 130.58-40h29.422c17.728 0 32-14.272 32-32v-29.422c25.255-37.151 40-82.077 40-130.58s-14.745-93.427-40-130.58v-29.422c0-17.728-14.272-32-32-32h-29.422c-37.151-25.255-82.077-40-130.58-40z" filter="url(#a)" opacity=".2"/>
     <path d="m464-200c-48.501 0-93.427 14.745-130.58 40h-29.422c-17.728 0-32 14.272-32 32v29.422c-25.255 37.151-40 82.077-40 130.58s14.745 93.427 40 130.58v29.422c0 17.728 14.272 32 32 32h29.422c37.151 25.255 82.077 40 130.58 40s93.427-14.745 130.58-40h29.422c17.728 0 32-14.272 32-32v-29.422c25.255-37.151 40-82.077 40-130.58s-14.745-93.427-40-130.58v-29.422c0-17.728-14.272-32-32-32h-29.422c-37.151-25.255-82.077-40-130.58-40z" filter="url(#a)" opacity=".2" stroke="#000" stroke-width="8"/>
    </g>
    <path d="m464-204c-48.501 0-93.427 14.745-130.58 40h-29.422c-17.728 0-32 14.272-32 32v29.422c-25.255 37.151-40 82.077-40 130.58s14.745 93.427 40 130.58v29.422c0 17.728 14.272 32 32 32h29.422c37.151 25.255 82.077 40 130.58 40s93.427-14.745 130.58-40h29.422c17.728 0 32-14.272 32-32v-29.422c25.255-37.151 40-82.077 40-130.58s-14.745-93.427-40-130.58v-29.422c0-17.728-14.272-32-32-32h-29.422c-37.151-25.255-82.077-40-130.58-40z" fill="#666"/>
    <path d="m308-136a12 12 0 0 0-12 12 12 12 0 0 0 12 12 12 12 0 0 0 12-12 12 12 0 0 0-12-12zm312 0a12 12 0 0 0-12 12 12 12 0 0 0 12 12 12 12 0 0 0 12-12 12 12 0 0 0-12-12zm-312 312a12 12 0 0 0-12 12 12 12 0 0 0 12 12 12 12 0 0 0 12-12 12 12 0 0 0-12-12zm312 0a12 12 0 0 0-12 12 12 12 0 0 0 12 12 12 12 0 0 0 12-12 12 12 0 0 0-12-12z" filter="url(#d)" opacity=".2"/>
    <path d="m308-140a12 12 0 0 0-12 12 12 12 0 0 0 12 12 12 12 0 0 0 12-12 12 12 0 0 0-12-12zm312 0a12 12 0 0 0-12 12 12 12 0 0 0 12 12 12 12 0 0 0 12-12 12 12 0 0 0-12-12zm-312 312a12 12 0 0 0-12 12 12 12 0 0 0 12 12 12 12 0 0 0 12-12 12 12 0 0 0-12-12zm312 0a12 12 0 0 0-12 12 12 12 0 0 0 12 12 12 12 0 0 0 12-12 12 12 0 0 0-12-12z" fill="#fff"/>
    <circle transform="matrix(0,-1,-1,0,0,0)" cx="-32" cy="-464" r="176" enable-background="new" filter="url(#c)" opacity=".2"/>
    <circle transform="matrix(0,-1,-1,0,0,0)" cx="-28" cy="-464" r="176" enable-background="new" fill="#333"/>
    <circle transform="rotate(90)" cx="28" cy="-464" r="152" enable-background="new" fill="#f9ce1d"/>
    <circle transform="matrix(0,-1,-1,0,0,0)" cx="-38" cy="-464" r="72" enable-background="new" filter="url(#b)" opacity=".2"/>
    <circle transform="matrix(0,-1,-1,0,0,0)" cx="-28" cy="-464" r="72" enable-background="new" fill="#333"/>
    <g fill="#fff">
     <circle transform="matrix(0,-1,-1,0,0,0)" cx="-4.0001" cy="-464" r="48" enable-background="new" opacity=".2"/>
     <path transform="translate(0,-244)" d="m464 40c-48.501 0-93.427 14.745-130.58 40h-29.422c-17.728 0-32 14.272-32 32v2c0-17.728 14.272-32 32-32h29.422c37.151-25.255 82.077-40 130.58-40s93.427 14.745 130.58 40h29.422c17.728 0 32 14.272 32 32v-2c0-17.728-14.272-32-32-32h-29.422c-37.151-25.255-82.077-40-130.58-40zm-192 101.42c-25.255 37.151-40 82.077-40 130.58 0 0.33406 8e-3 0.66628 0.01 1 0.20129-48.118 14.909-92.683 39.99-129.58zm384 0v2c25.081 36.896 39.789 81.46 39.99 129.58 1e-3 -0.33372 0.01-0.66594 0.01-1 0-48.501-14.745-93.427-40-130.58z" opacity=".2"/>
     <path transform="translate(0,-244)" d="m464 96a176 176 0 0 0-176 176 176 176 0 0 0 0.041 0.83594 176 176 0 0 1 175.96-174.84 176 176 0 0 1 175.47 165.5 176 176 0 0 1 0.0527 1.041 176 176 0 0 1 0.43164 8.6387 176 176 0 0 0 0.04105-1.1758 176 176 0 0 0-176-176z" enable-background="new" opacity=".2"/>
    </g>
    <path d="m312.08 30.342a152 152 0 0 1-0.08203-2.3418 152 152 0 0 1 152-152 152 152 0 0 1 152 152 152 152 0 0 1-0.08203 1.6582 152 152 0 0 0-151.92-149.66 152 152 0 0 0-151.92 150.34z" enable-background="new" opacity=".2"/>
   </g>
  </g>
 </g>
</svg>
