<svg width="512" height="512" version="1" xmlns="http://www.w3.org/2000/svg">
 <defs>
  <filter id="a" x="-.035357" y="-.036667" width="1.0707" height="1.0733" color-interpolation-filters="sRGB">
   <feGaussianBlur stdDeviation="0.825"/>
  </filter>
 </defs>
 <g transform="matrix(7.8688 0 0 7.8688 4.1984 .26554)">
  <path d="m32 9c-11.08 0-20 8.92-20 20v2c0-11.08 8.92-20 20-20s20 8.92 20 20v-2c0-11.08-8.92-20-20-20zm-28 38v2c0 7.1392 5.0838 9.082 8 9.6132v-2c-2.9162-0.532-8-2.474-8-9.614zm56 0c0 7.1392-5.0838 9.0902-8 9.625v2c2.916-0.534 8-2.484 8-9.624v-2zm-48 14v2h10v-2zm30 0v2h10v-2z" filter="url(#a)" opacity=".2"/>
  <path d="m32 2.0004c-15.464 0-28 12.536-28 28v18c0 7.1392 5.0838 9.082 8 9.6132v-27.614c0-11.08 8.92-20 20-20s20 8.92 20 20v27.624c2.916-0.536 8-2.484 8-9.624v-18c0-15.464-12.536-28-28-28z" fill="#4f4f4f"/>
  <path d="m12 34v28h10v-28zm30 0v28h10v-28z" fill="#8e8e8e"/>
  <path d="m32 2c-15.464 0-28 12.536-28 28v1c0-15.464 12.536-28 28-28s28 12.536 28 28v-1c0-15.464-12.536-28-28-28z" fill="#fff" opacity=".1"/>
  <path d="m12 34v1h10v-1zm30 0v1h10v-1z" fill="#fff" opacity=".1"/>
 </g>
</svg>
