<svg width="512" height="512" enable-background="new" version="1.0" xmlns="http://www.w3.org/2000/svg" xmlns:xlink="http://www.w3.org/1999/xlink">
 <defs>
  <filter id="a" x="-.030667" y="-.019714" width="1.0613" height="1.0394" color-interpolation-filters="sRGB">
   <feGaussianBlur stdDeviation="3.68"/>
  </filter>
 </defs>
 <g transform="translate(0,212)">
  <g opacity=".97">
   <g transform="translate(-208,16)">
    <g>
     <rect transform="matrix(0,-1,-1,0,0,0)" x="-256" y="-608" width="448" height="288" rx="160" ry="144" filter="url(#a)" opacity=".1" stroke="#000" stroke-width="8"/>
     <rect transform="matrix(0,-1,-1,0,0,0)" x="-256" y="-608" width="448" height="288" rx="160" ry="144" filter="url(#a)" opacity=".2"/>
     <rect transform="matrix(0,-1,-1,0,0,0)" x="-252" y="-608" width="448" height="288" rx="160" ry="144" fill="#3f51b5"/>
    </g>
    <path d="m392-44 144 136-72 72v-280l72 72-144 120" fill="none" stroke="#fff" stroke-linecap="square" stroke-width="16"/>
    <path transform="translate(0,76)" d="m464-272c-79.776 0-144 71.36-144 160v2c0-88.64 64.224-160 144-160s144 71.36 144 160v-2c0-88.64-64.224-160-144-160z" fill="#fff" opacity=".1"/>
   </g>
  </g>
 </g>
</svg>
