<svg width="512" height="512" enable-background="new" version="1.0" xmlns="http://www.w3.org/2000/svg">
 <defs>
  <filter id="c" x="-.10934" y="-.13296" width="1.2187" height="1.2659" color-interpolation-filters="sRGB">
   <feGaussianBlur stdDeviation="1.7801066"/>
  </filter>
  <clipPath id="d">
   <path d="m143 255 0.13393 5.9448c0.13393 0.94481 0.9155 2.6551 2.1024 4.0044 1.6469 1.8722 4.0626 3.0508 6.7636 3.0508h16l6 8c3 4 6.3813 0.70711 6-2l-1-19z" fill="#828b8f"/>
  </clipPath>
  <filter id="a" x="-.021615" y="-.026977" width="1.0432" height="1.054" color-interpolation-filters="sRGB">
   <feGaussianBlur stdDeviation="4.0347814"/>
  </filter>
  <filter id="b" x="-.039" y="-.13" width="1.078" height="1.26" color-interpolation-filters="sRGB">
   <feGaussianBlur stdDeviation="5.2000035"/>
  </filter>
 </defs>
 <g transform="translate(0,212)">
  <g>
   <g transform="translate(-208,16)">
    <path d="m352.53-150.96c-55.7 0-97.609 44.924-100.54 100.55l-11.178 212.25c-7.0486 41.504 33.21 67.712 67.035 22.345l59.773-89.654c2.3965 0.1696 4.8106 0.25749 7.2515 0.2848h178.74l67.024 89.37c33.514 44.685 71.295 7.897 67.035-22.345l-11.178-212.25c0-55.701-44.836-100.55-100.54-100.55h-223.43z" filter="url(#a)" opacity=".1" stroke="#000" stroke-width="8"/>
    <path d="m352.53-150.96c-55.7 0-97.609 44.924-100.54 100.55l-11.178 212.25c-7.0486 41.504 33.21 67.712 67.035 22.345l59.773-89.654c2.3965 0.1696 4.8106 0.25749 7.2515 0.2848h178.74l67.024 89.37c33.514 44.685 71.295 7.897 67.035-22.345l-11.178-212.25c0-55.701-44.836-100.55-100.54-100.55h-223.43z" filter="url(#a)" opacity=".2"/>
    <path d="m274.33-53.736 1.4962 66.411c1.4962 10.555 10.227 29.661 23.487 44.735 18.398 20.916 45.385 34.59 75.559 34.59h177.13l68.64 88.863c33.514 44.685 71.288 7.8994 67.028-22.343l-11.171-212.26z" fill="#455a64"/>
    <path transform="matrix(11.171 0 0 11.171 -1323.2 -2902.4)" d="m150 246h20c4.986 0 9 4.014 9 9 0 2.285-0.84305 4.3659-2.2364 5.9498-1.6469 1.8722-4.0627 3.0502-6.7636 3.0502h-16l-8 12c-3.0279 4.061-6.631 1.7152-6-2l1-19c0.26206-4.9791 4.014-9 9-9z" clip-path="url(#d)" filter="url(#c)" opacity=".2"/>
    <path d="m352.57-156h223.43c55.7 0 100.5 46.564 100.5 102.26-1.8931 58.409-49.987 97.071-100.54 97.736h-178.74l-89.371 136.86c-33.825 45.367-74.077 19.161-67.028-22.343l11.171-212.26c2.9275-55.623 44.887-102.26 100.59-102.26z" fill="#607d8b"/>
    <g transform="translate(0,8)" filter="url(#b)" opacity=".2">
     <rect x="336" y="-100" width="32" height="96" ry="0"/>
     <rect transform="rotate(90)" x="-68" y="-400" width="32" height="96" ry="0"/>
     <circle cx="544" cy="-52" r="16"/>
     <circle cx="576" cy="-84" r="16"/>
     <circle cx="608" cy="-52" r="16"/>
     <circle cx="576" cy="-20" r="16"/>
    </g>
    <g fill="#fff">
     <rect x="336" y="-100" width="32" height="96" ry="0"/>
     <rect transform="rotate(90)" x="-68" y="-400" width="32" height="96" ry="0"/>
     <circle cx="544" cy="-52" r="16"/>
     <circle cx="576" cy="-84" r="16"/>
     <circle cx="608" cy="-52" r="16"/>
     <circle cx="576" cy="-20" r="16"/>
    </g>
    <path transform="translate(0,-244)" d="m352.57 88c-55.7 0-97.66 46.64-100.59 102.26l-11.17 212.26c-0.61135 3.5998-0.86016 7.0812-0.79492 10.414 0.0508-2.7189 0.30483-5.5283 0.79492-8.4141l11.17-212.26c2.9275-55.623 44.887-102.26 100.59-102.26h223.43c55.174 0 99.641 45.69 100.48 100.69 5e-3 -0.14239 0.0149-0.28315 0.0195-0.42578 3e-5 -55.7-44.796-102.26-100.5-102.26z" fill="#fff" opacity=".2"/>
   </g>
  </g>
 </g>
</svg>
