<svg width="512" height="512" enable-background="new" version="1.0" xmlns="http://www.w3.org/2000/svg" xmlns:xlink="http://www.w3.org/1999/xlink">
 <defs>
  <filter id="a" x="-.019862" y="-.030316" width="1.0397" height="1.0606" color-interpolation-filters="sRGB">
   <feGaussianBlur stdDeviation="3.84"/>
  </filter>
  <filter id="b" x="-.018783" y="-.033231" width="1.0376" height="1.0665" color-interpolation-filters="sRGB">
   <feGaussianBlur stdDeviation="2.88"/>
  </filter>
 </defs>
 <g transform="translate(0,212)">
  <g>
   <g transform="translate(-208,16)">
    <rect transform="matrix(0,-1,-1,0,-16,0)" x="-190" y="-704" width="304" height="464" rx="24" ry="24" filter="url(#a)" opacity=".1" stroke="#000" stroke-width="8"/>
    <rect transform="matrix(0,-1,-1,0,-16,0)" x="-190" y="-704" width="304" height="464" rx="24" ry="24" filter="url(#a)" opacity=".2"/>
    <rect transform="matrix(0,-1,-1,0,0,0)" x="-188" y="-688" width="304" height="464" rx="24" ry="24" fill="#78909c"/>
    <path d="m278-64c-3.324 0-6 2.676-6 6v36c0 3.324 2.676 6 6 6h36c3.324 0 6-2.676 6-6v-36c0-3.324-2.676-6-6-6zm80 0c-3.324 0-6 2.676-6 6v36c0 3.324 2.676 6 6 6h36c3.324 0 6-2.676 6-6v-36c0-3.324-2.676-6-6-6zm80 0c-3.324 0-6 2.676-6 6v36c0 3.324 2.676 6 6 6h36c3.324 0 6-2.676 6-6v-36c0-3.324-2.676-6-6-6zm80 0c-3.324 0-6 2.676-6 6v36c0 3.324 2.676 6 6 6h36c3.324 0 6-2.676 6-6v-36c0-3.324-2.676-6-6-6zm80 0c-3.324 0-6 2.676-6 6v36c0 3.324 2.676 6 6 6h36c3.324 0 6-2.676 6-6v-36c0-3.324-2.676-6-6-6zm-320 80c-3.324 0-6 2.676-6 6v36c0 3.324 2.676 6 6 6h36c3.324 0 6-2.676 6-6v-36c0-3.324-2.676-6-6-6zm80 0c-3.324 0-6 2.676-6 6v36c0 3.324 2.676 6 6 6h36c3.324 0 6-2.676 6-6v-36c0-3.324-2.676-6-6-6zm80 0c-3.324 0-6 2.676-6 6v36c0 3.324 2.676 6 6 6h36c3.324 0 6-2.676 6-6v-36c0-3.324-2.676-6-6-6zm80 0c-3.324 0-6 2.676-6 6v36c0 3.324 2.676 6 6 6h36c3.324 0 6-2.676 6-6v-36c0-3.324-2.676-6-6-6zm80 0c-3.324 0-6 2.676-6 6v36c0 3.324 2.676 6 6 6h36c3.324 0 6-2.676 6-6v-36c0-3.324-2.676-6-6-6zm-272 80c-3.324 0-6 2.676-6 6v36c0 3.324 2.676 6 6 6h260c3.324 0 6-2.676 6-6v-36c0-3.324-2.676-6-6-6z" filter="url(#b)" opacity=".2"/>
    <path d="m278-68c-3.324 0-6 2.676-6 6v36c0 3.324 2.676 6 6 6h36c3.324 0 6-2.676 6-6v-36c0-3.324-2.676-6-6-6zm80 0c-3.324 0-6 2.676-6 6v36c0 3.324 2.676 6 6 6h36c3.324 0 6-2.676 6-6v-36c0-3.324-2.676-6-6-6zm80 0c-3.324 0-6 2.676-6 6v36c0 3.324 2.676 6 6 6h36c3.324 0 6-2.676 6-6v-36c0-3.324-2.676-6-6-6zm80 0c-3.324 0-6 2.676-6 6v36c0 3.324 2.676 6 6 6h36c3.324 0 6-2.676 6-6v-36c0-3.324-2.676-6-6-6zm80 0c-3.324 0-6 2.676-6 6v36c0 3.324 2.676 6 6 6h36c3.324 0 6-2.676 6-6v-36c0-3.324-2.676-6-6-6zm-320 80c-3.324 0-6 2.676-6 6v36c0 3.324 2.676 6 6 6h36c3.324 0 6-2.676 6-6v-36c0-3.324-2.676-6-6-6zm80 0c-3.324 0-6 2.676-6 6v36c0 3.324 2.676 6 6 6h36c3.324 0 6-2.676 6-6v-36c0-3.324-2.676-6-6-6zm80 0c-3.324 0-6 2.676-6 6v36c0 3.324 2.676 6 6 6h36c3.324 0 6-2.676 6-6v-36c0-3.324-2.676-6-6-6zm80 0c-3.324 0-6 2.676-6 6v36c0 3.324 2.676 6 6 6h36c3.324 0 6-2.676 6-6v-36c0-3.324-2.676-6-6-6zm80 0c-3.324 0-6 2.676-6 6v36c0 3.324 2.676 6 6 6h36c3.324 0 6-2.676 6-6v-36c0-3.324-2.676-6-6-6zm-272 80c-3.324 0-6 2.676-6 6v36c0 3.324 2.676 6 6 6h260c3.324 0 6-2.676 6-6v-36c0-3.324-2.676-6-6-6z" fill="#fff"/>
    <path d="m248-116c-13.296 0-24 10.704-24 24v2c0-13.296 10.704-24 24-24h416c13.296 0 24 10.704 24 24v-2c0-13.296-10.704-24-24-24z" fill="#fff" opacity=".2"/>
   </g>
  </g>
 </g>
 <g transform="translate(0,212)">
  <g></g>
 </g>
 <g transform="translate(0,212)">
  <g></g>
 </g>
</svg>
