<svg width="512" height="512" enable-background="new" version="1.0" xmlns="http://www.w3.org/2000/svg" xmlns:osb="http://www.openswatchbook.org/uri/2009/osb" xmlns:xlink="http://www.w3.org/1999/xlink">
 <defs>
  <filter id="e" x="-.165" y="-.165" width="1.33" height="1.33" color-interpolation-filters="sRGB">
   <feGaussianBlur stdDeviation="2.2"/>
  </filter>
  <filter id="d" x="-.165" y="-.165" width="1.33" height="1.33" color-interpolation-filters="sRGB">
   <feGaussianBlur stdDeviation="2.2"/>
  </filter>
  <filter id="c" x="-.165" y="-.165" width="1.33" height="1.33" color-interpolation-filters="sRGB">
   <feGaussianBlur stdDeviation="2.2"/>
  </filter>
  <filter id="b" x="-.023571" y="-.024444" width="1.0471" height="1.0489" color-interpolation-filters="sRGB">
   <feGaussianBlur stdDeviation="4.4"/>
  </filter>
 </defs>
 <g transform="translate(0,212)">
  <g>
   <g transform="translate(-208,16)">
    <g stroke-width="0">
     <path d="m264-184c-13.296 0-24 10.704-24 24v96c0 13.296 10.704 24 24 24-13.296 0-24 10.704-24 24v96c0 13.296 10.704 24 24 24-13.296 0-24 10.704-24 24v96c0 13.296 10.704 24 24 24h400c13.296 0 24-10.704 24-24v-96c0-13.296-10.704-24-24-24 13.296 0 24-10.704 24-24v-96c0-13.296-10.704-24-24-24 13.296 0 24-10.704 24-24v-96c0-13.296-10.704-24-24-24z" filter="url(#b)" opacity=".1"/>
     <path d="m264-184c-13.296 0-24 10.704-24 24v96c0 13.296 10.704 24 24 24-13.296 0-24 10.704-24 24v96c0 13.296 10.704 24 24 24-13.296 0-24 10.704-24 24v96c0 13.296 10.704 24 24 24h400c13.296 0 24-10.704 24-24v-96c0-13.296-10.704-24-24-24 13.296 0 24-10.704 24-24v-96c0-13.296-10.704-24-24-24 13.296 0 24-10.704 24-24v-96c0-13.296-10.704-24-24-24z" filter="url(#b)" opacity=".2"/>
     <path d="m264-186c-13.296 0-24 10.704-24 24v96c0 13.296 10.704 24 24 24-13.296 0-24 10.704-24 24v96c0 13.296 10.704 24 24 24-13.296 0-24 10.704-24 24v96c0 13.296 10.704 24 24 24h400c13.296 0 24-10.704 24-24v-96c0-13.296-10.704-24-24-24 13.296 0 24-10.704 24-24v-96c0-13.296-10.704-24-24-24 13.296 0 24-10.704 24-24v-96c0-13.296-10.704-24-24-24z" opacity=".2"/>
    </g>
    <g id="a" transform="translate(0 10)">
     <rect transform="matrix(0,-1,-1,0,0,0)" x="52" y="-688" width="144" height="448" rx="24" ry="24" fill="#78909c"/>
     <rect x="512" y="-144" width="32" height="32" ry="16" filter="url(#e)" opacity=".2"/>
     <path d="m408.2-154.28-32.201 64.278" fill="none" opacity=".5" stroke="#cfd8dc" stroke-linecap="round" stroke-width="16"/>
     <path d="m408.2-158.28-32.201 64.278" fill="none" stroke="#37474f" stroke-linecap="round" stroke-width="16"/>
     <path d="m408.2-156.28-32.201 64.278" fill="none" stroke="#455a64" stroke-linecap="round" stroke-width="16"/>
     <path d="m360.2-158.28-32.201 64.278" fill="none" stroke="#37474f" stroke-linecap="round" stroke-width="16"/>
     <path d="m360.2-154.28-32.201 64.278" fill="none" opacity=".5" stroke="#cfd8dc" stroke-linecap="round" stroke-width="16"/>
     <path d="m312.2-158.28-32.201 64.278" fill="none" stroke="#37474f" stroke-linecap="round" stroke-width="16"/>
     <path d="m360.2-156.28-32.201 64.278" fill="none" stroke="#455a64" stroke-linecap="round" stroke-width="16"/>
     <path d="m456.2-158.28-32.201 64.278" fill="none" stroke="#37474f" stroke-linecap="round" stroke-width="16"/>
     <path d="m312.2-154.28-32.201 64.278" fill="none" opacity=".5" stroke="#cfd8dc" stroke-linecap="round" stroke-width="16"/>
     <path d="m312.2-156.28-32.201 64.278" fill="none" stroke="#455a64" stroke-linecap="round" stroke-width="16"/>
     <rect x="512" y="-148" width="32" height="32" ry="16" fill="#76ff03"/>
     <rect x="568" y="-144" width="32" height="32" ry="16" filter="url(#d)" opacity=".2"/>
     <rect x="568" y="-148" width="32" height="32" ry="16" fill="#ff0"/>
     <rect x="624" y="-144" width="32" height="32" ry="16" filter="url(#c)" opacity=".2"/>
     <rect x="624" y="-148" width="32" height="32" ry="16" fill="#ffcd40"/>
     <path d="m456.2-154.28-32.201 64.278" fill="none" opacity=".5" stroke="#cfd8dc" stroke-linecap="round" stroke-width="16"/>
     <path d="m456.2-156.28-32.201 64.278" fill="none" stroke="#455a64" stroke-linecap="round" stroke-width="16"/>
     <path transform="translate(0,-244)" d="m264 48c-13.296 0-24 10.704-24 24v2c0-13.296 10.704-24 24-24h400c13.296 0 24 10.704 24 24v-2c0-13.296-10.704-24-24-24z" fill="#fff" opacity=".2"/>
     <path d="m264-52c-13.296 0-24-10.704-24-24v-2c0 13.296 10.704 24 24 24h400c13.296 0 24-10.704 24-24v2c0 13.296-10.704 24-24 24z" opacity=".2"/>
     <path d="m640-114c8.864 0 16-7.136 16-16 0-0.33769-0.0304-0.66763-0.0508-1-0.51545 8.3921-7.4229 15-15.949 15s-15.434-6.6079-15.949-15c-0.0204 0.33237-0.0508 0.66231-0.0508 1 0 8.864 7.136 16 16 16zm-56 0c8.864 0 16-7.136 16-16 0-0.33769-0.0304-0.66763-0.0508-1-0.51545 8.3921-7.4229 15-15.949 15s-15.434-6.6079-15.949-15c-0.0204 0.33237-0.0508 0.66231-0.0508 1 0 8.864 7.136 16 16 16zm-56 0c8.864 0 16-7.136 16-16 0-0.33769-0.0304-0.66763-0.0508-1-0.51545 8.3921-7.4229 15-15.949 15s-15.434-6.6079-15.949-15c-0.0204 0.33237-0.0508 0.66231-0.0508 1 0 8.864 7.136 16 16 16z" opacity=".1"/>
    </g>
    <use transform="translate(0,142)" width="100%" height="100%" xlink:href="#a"/>
    <use transform="translate(0,286)" width="100%" height="100%" xlink:href="#a"/>
   </g>
  </g>
 </g>
</svg>
