<svg width="512" height="512" enable-background="new" version="1.0" xmlns="http://www.w3.org/2000/svg" xmlns:osb="http://www.openswatchbook.org/uri/2009/osb">
 <defs>
  <filter id="a" x="-.027273" y="-.021429" width="1.0545" height="1.0429" color-interpolation-filters="sRGB">
   <feGaussianBlur stdDeviation="4"/>
  </filter>
 </defs>
 <g transform="translate(0,212)">
  <g>
   <g transform="translate(-208,16)">
    <rect transform="matrix(0,-1,-1,0,0,0)" x="-256" y="-640" width="448" height="352" rx="24" ry="24" filter="url(#a)" opacity=".1" stroke="#000" stroke-width="8"/>
    <rect transform="matrix(0,-1,-1,0,0,0)" x="-256" y="-640" width="448" height="352" rx="24" ry="24" filter="url(#a)" opacity=".2"/>
    <rect transform="matrix(0,-1,-1,0,0,0)" x="-252" y="-640" width="448" height="352" rx="24" ry="24" fill="#9d9d9d"/>
    <path transform="translate(0,-244)" d="m312 48c-13.296 0-24 10.704-24 24v2c0-13.296 10.704-24 24-24h304c13.296 0 24 10.704 24 24v-2c0-13.296-10.704-24-24-24z" fill="#fff" opacity=".1"/>
    <rect transform="matrix(0,-1,-1,0,0,0)" x="-220" y="-608" width="384" height="288" rx="0" ry="0" enable-background="new" fill="#ebebeb"/>
    <g fill="#fffbd8" stroke="#fffbd8" stroke-linecap="round">
     <rect x="280" y="20" width="368" height="16" rx="8" ry="8" opacity=".05" stroke-width="32"/>
     <rect x="280" y="20" width="368" height="16" rx="8" ry="8" stroke-width="16"/>
     <rect x="280" y="20" width="368" height="16" rx="8" ry="8" opacity=".01" stroke-width="48"/>
    </g>
   </g>
  </g>
 </g>
</svg>
