<svg width="200" height="200" version="1.1" viewBox="0 0 200 200" xmlns="http://www.w3.org/2000/svg" xmlns:xlink="http://www.w3.org/1999/xlink">
 <rect y="0" width="200" height="200" fill="url(#u)"/>
 <defs>
  <linearGradient id="color-fg">
   <stop stop-color="#fff" offset="0"/>
  </linearGradient>
  <linearGradient id="color-divider">
   <stop stop-color="#fff" stop-opacity=".12" offset="0"/>
  </linearGradient>
  <linearGradient id="color-bg">
   <stop stop-color="#333e43" offset="0"/>
  </linearGradient>
  <linearGradient id="color-bg-lighter">
   <stop stop-color="#414f56" offset="0"/>
  </linearGradient>
  <linearGradient id="color-base">
   <stop stop-color="#3b484e" offset="0"/>
  </linearGradient>
  <linearGradient id="color-base-alt">
   <stop stop-color="#374349" offset="0"/>
  </linearGradient>
  <linearGradient id="color-border">
   <stop stop-opacity=".26" offset="0"/>
  </linearGradient>
  <filter id="a" x="0" y="0" width="1" height="1" color-interpolation-filters="sRGB">
   <feFlood flood-color="#000000" flood-opacity=".12" result="flood"/>
   <feComposite in="flood" in2="SourceGraphic" operator="in" result="composite1"/>
   <feGaussianBlur in="composite1" result="blur" stdDeviation="1.5"/>
   <feOffset dx="0" dy="1" result="offset"/>
   <feComposite in="SourceGraphic" in2="offset" result="fbSourceGraphic"/>
   <feFlood flood-color="#000000" flood-opacity=".24" result="flood"/>
   <feComposite in="flood" in2="fbSourceGraphic" operator="in" result="composite1"/>
   <feGaussianBlur in="composite1" result="blur" stdDeviation="1"/>
   <feOffset dx="0" dy="1" result="offset"/>
   <feComposite in="fbSourceGraphic" in2="offset" result="composite2"/>
  </filter>
  <rect id="b" width="1" height="1"/>
  <clipPath id="left">
   <rect width="10" height="20"/>
  </clipPath>
  <clipPath id="right">
   <rect x="10" width="10" height="20"/>
  </clipPath>
  <clipPath id="left-top">
   <rect width="10" height="10"/>
  </clipPath>
  <clipPath id="left-bottom">
   <rect y="10" width="10" height="10"/>
  </clipPath>
  <clipPath id="right-top">
   <rect x="10" width="10" height="10"/>
  </clipPath>
  <clipPath id="right-bottom">
   <rect x="10" y="10" width="10" height="10"/>
  </clipPath>
  <g id="base-box">
   <rect width="20" height="20" opacity="0"/>
   <rect x="2" y="2" width="16" height="16" rx="2" ry="2"/>
  </g>
  <use id="base-flat-button" width="100%" height="100%" opacity="0" xlink:href="#base-box"/>
  <use id="base-flat-button-hover" width="100%" height="100%" fill="url(#color-fg)" opacity=".15" xlink:href="#base-box"/>
  <use id="base-flat-button-active" width="100%" height="100%" fill="url(#color-fg)" opacity=".3" xlink:href="#base-box"/>
  <use id="base-flat-button-insensitive" width="100%" height="100%" opacity="0" xlink:href="#base-box"/>
  <use id="base-button" width="100%" height="100%" fill="url(#color-bg-lighter)" filter="url(#a)" xlink:href="#base-box"/>
  <use id="base-button-hover" width="100%" height="100%" filter="url(#a)" xlink:href="#base-button"/>
  <g id="base-button-active">
   <use width="100%" height="100%" xlink:href="#base-button-hover"/>
   <use width="100%" height="100%" xlink:href="#base-flat-button-active"/>
  </g>
  <use id="base-button-insensitive" width="100%" height="100%" fill="url(#color-divider)" xlink:href="#base-box"/>
  <use id="base-entry-background" width="100%" height="100%" fill="url(#color-base)" xlink:href="#b"/>
  <use id="base-entry-background-insensitive" width="100%" height="100%" fill="url(#color-base-alt)" xlink:href="#b"/>
  <use id="base-entry-box" width="100%" height="100%" fill="url(#color-base)" filter="url(#a)" xlink:href="#base-box"/>
  <use id="base-entry-box-active" width="100%" height="100%" filter="url(#a)" xlink:href="#base-entry-box"/>
  <use id="base-entry-box-insensitive" width="100%" height="100%" fill="url(#color-base-alt)" filter="url(#a)" xlink:href="#base-box"/>
  <rect id="background-fill" width="20" height="20"/>
  <g id="base-entry">
   <use width="100%" height="100%" xlink:href="#background-fill"/>
   <use width="100%" height="100%" xlink:href="#base-entry-box"/>
  </g>
  <g id="base-entry-active">
   <use width="100%" height="100%" xlink:href="#background-fill"/>
   <use width="100%" height="100%" xlink:href="#base-entry-box-active"/>
  </g>
  <g id="base-entry-insensitive">
   <use width="100%" height="100%" xlink:href="#background-fill"/>
   <use width="100%" height="100%" xlink:href="#base-entry-box-insensitive"/>
  </g>
  <use id="base-combo-rtl-button" width="100%" height="100%" clip-path="url(#left)" xlink:href="#base-button"/>
  <use id="base-combo-rtl-button-hover" width="100%" height="100%" clip-path="url(#left)" xlink:href="#base-button-hover"/>
  <use id="base-combo-rtl-button-active" width="100%" height="100%" clip-path="url(#left)" xlink:href="#base-button-active"/>
  <use id="base-combo-rtl-button-insensitive" width="100%" height="100%" clip-path="url(#left)" xlink:href="#base-button-insensitive"/>
  <use id="base-combo-ltr-button" width="100%" height="100%" clip-path="url(#right)" xlink:href="#base-button"/>
  <use id="base-combo-ltr-button-hover" width="100%" height="100%" clip-path="url(#right)" xlink:href="#base-button-hover"/>
  <use id="base-combo-ltr-button-active" width="100%" height="100%" clip-path="url(#right)" xlink:href="#base-button-active"/>
  <use id="base-combo-ltr-button-insensitive" width="100%" height="100%" clip-path="url(#right)" xlink:href="#base-button-insensitive"/>
  <use id="base-spin-rtl-up" width="100%" height="100%" clip-path="url(#left-top)" xlink:href="#base-button"/>
  <use id="base-spin-rtl-up-hover" width="100%" height="100%" clip-path="url(#left-top)" xlink:href="#base-button-hover"/>
  <use id="base-spin-rtl-up-active" width="100%" height="100%" clip-path="url(#left-top)" xlink:href="#base-button-active"/>
  <use id="base-spin-rtl-up-insensitive" width="100%" height="100%" clip-path="url(#left-top)" xlink:href="#base-button-insensitive"/>
  <use id="base-spin-rtl-down" width="100%" height="100%" clip-path="url(#left-bottom)" xlink:href="#base-button"/>
  <use id="base-spin-rtl-down-hover" width="100%" height="100%" clip-path="url(#left-bottom)" xlink:href="#base-button-hover"/>
  <use id="base-spin-rtl-down-active" width="100%" height="100%" clip-path="url(#left-bottom)" xlink:href="#base-button-active"/>
  <use id="base-spin-rtl-down-insensitive" width="100%" height="100%" clip-path="url(#left-bottom)" xlink:href="#base-button-insensitive"/>
  <use id="base-spin-ltr-up" width="100%" height="100%" clip-path="url(#right-top)" xlink:href="#base-button"/>
  <use id="base-spin-ltr-up-hover" width="100%" height="100%" clip-path="url(#right-top)" xlink:href="#base-button-hover"/>
  <use id="base-spin-ltr-up-active" width="100%" height="100%" clip-path="url(#right-top)" xlink:href="#base-button-active"/>
  <use id="base-spin-ltr-up-insensitive" width="100%" height="100%" clip-path="url(#right-top)" xlink:href="#base-button-insensitive"/>
  <use id="base-spin-ltr-down" width="100%" height="100%" clip-path="url(#right-bottom)" xlink:href="#base-button"/>
  <use id="base-spin-ltr-down-hover" width="100%" height="100%" clip-path="url(#right-bottom)" xlink:href="#base-button-hover"/>
  <use id="base-spin-ltr-down-active" width="100%" height="100%" clip-path="url(#right-bottom)" xlink:href="#base-button-active"/>
  <use id="base-spin-ltr-down-insensitive" width="100%" height="100%" clip-path="url(#right-bottom)" xlink:href="#base-button-insensitive"/>
  <use id="base-combo-ltr-entry" width="100%" height="100%" clip-path="url(#left)" xlink:href="#base-entry"/>
  <use id="base-combo-ltr-entry-active" width="100%" height="100%" clip-path="url(#left)" xlink:href="#base-entry-active"/>
  <use id="base-combo-ltr-entry-insensitive" width="100%" height="100%" clip-path="url(#left)" xlink:href="#base-entry-insensitive"/>
  <use id="base-combo-rtl-entry" width="100%" height="100%" clip-path="url(#right)" xlink:href="#base-entry"/>
  <use id="base-combo-rtl-entry-active" width="100%" height="100%" clip-path="url(#right)" xlink:href="#base-entry-active"/>
  <use id="base-combo-rtl-entry-insensitive" width="100%" height="100%" clip-path="url(#right)" xlink:href="#base-entry-insensitive"/>
  <rect id="base-frame" x=".5" y=".5" width="2" height="2" fill="none" stroke="url(#color-border)"/>
  <g id="base-frame-notebook">
   <rect width="3" height="3" fill="url(#color-border)"/>
   <use x="1" y="1" width="100%" height="100%" fill="url(#color-base)" xlink:href="#b"/>
  </g>
  <g id="base-frame-inline">
   <rect width="3" height="2" fill="url(#color-border)"/>
   <use x="1" width="100%" height="100%" fill="url(#color-base-alt)" xlink:href="#b"/>
  </g>
  <linearGradient id="u" x2="309.84" gradientTransform="matrix(.6455 0 0 1.5492 0 -280)" gradientUnits="userSpaceOnUse" xlink:href="#color-bg"/>
  <linearGradient id="t" x1="104" x2="124" y1="28" y2="28" gradientUnits="userSpaceOnUse" xlink:href="#color-bg"/>
  <linearGradient id="s" x1="104" x2="124" y1="48" y2="48" gradientUnits="userSpaceOnUse" xlink:href="#color-bg"/>
  <linearGradient id="r" x1="104" x2="124" y1="68" y2="68" gradientUnits="userSpaceOnUse" xlink:href="#color-bg"/>
  <linearGradient id="q" x1="175.36" x2="189.5" y1="19.799" y2="19.799" gradientTransform="scale(.70711 1.4142)" gradientUnits="userSpaceOnUse" xlink:href="#color-bg"/>
  <linearGradient id="p" x1="175.36" x2="189.5" y1="33.941" y2="33.941" gradientTransform="scale(.70711 1.4142)" gradientUnits="userSpaceOnUse" xlink:href="#color-bg"/>
  <linearGradient id="o" x1="175.36" x2="189.5" y1="48.083" y2="48.083" gradientTransform="scale(.70711 1.4142)" gradientUnits="userSpaceOnUse" xlink:href="#color-bg"/>
  <linearGradient id="n" x1="195.16" x2="209.3" y1="19.799" y2="19.799" gradientTransform="scale(.70711 1.4142)" gradientUnits="userSpaceOnUse" xlink:href="#color-bg"/>
  <linearGradient id="m" x1="195.16" x2="209.3" y1="33.941" y2="33.941" gradientTransform="scale(.70711 1.4142)" gradientUnits="userSpaceOnUse" xlink:href="#color-bg"/>
  <linearGradient id="l" x1="195.16" x2="209.3" y1="48.083" y2="48.083" gradientTransform="scale(.70711 1.4142)" gradientUnits="userSpaceOnUse" xlink:href="#color-bg"/>
  <linearGradient id="k" x1="152" x2="172" y1="28" y2="28" gradientUnits="userSpaceOnUse" xlink:href="#color-base"/>
  <linearGradient id="j" x1="152" x2="172" y1="48" y2="48" gradientUnits="userSpaceOnUse" xlink:href="#color-base"/>
  <linearGradient id="i" x1="152" x2="172" y1="68" y2="68" gradientUnits="userSpaceOnUse" xlink:href="#color-base"/>
  <linearGradient id="h" x1="243.24" x2="257.39" y1="19.799" y2="19.799" gradientTransform="scale(.70711 1.4142)" gradientUnits="userSpaceOnUse" xlink:href="#color-base"/>
  <linearGradient id="g" x1="243.24" x2="257.39" y1="33.941" y2="33.941" gradientTransform="scale(.70711 1.4142)" gradientUnits="userSpaceOnUse" xlink:href="#color-base"/>
  <linearGradient id="f" x1="243.24" x2="257.39" y1="48.083" y2="48.083" gradientTransform="scale(.70711 1.4142)" gradientUnits="userSpaceOnUse" xlink:href="#color-base"/>
  <linearGradient id="e" x1="263.04" x2="277.19" y1="19.799" y2="19.799" gradientTransform="scale(.70711 1.4142)" gradientUnits="userSpaceOnUse" xlink:href="#color-base"/>
  <linearGradient id="d" x1="263.04" x2="277.19" y1="33.941" y2="33.941" gradientTransform="scale(.70711 1.4142)" gradientUnits="userSpaceOnUse" xlink:href="#color-base"/>
  <linearGradient id="c" x1="263.04" x2="277.19" y1="48.083" y2="48.083" gradientTransform="scale(.70711 1.4142)" gradientUnits="userSpaceOnUse" xlink:href="#color-base"/>
 </defs>
 <use id="flat-button" transform="translate(-3.6949 73.932)" x="8" y="8" width="100%" height="100%" xlink:href="#base-flat-button"/>
 <use id="flat-button-hover" transform="translate(-3.6949 73.932)" x="8" y="28" width="100%" height="100%" xlink:href="#base-flat-button-hover"/>
 <use id="flat-button-active" transform="translate(-3.6949 73.932)" x="8" y="48" width="100%" height="100%" xlink:href="#base-flat-button-active"/>
 <use id="flat-button-insensitive" transform="translate(-3.6949 73.932)" x="8" y="68" width="100%" height="100%" xlink:href="#base-flat-button-insensitive"/>
 <use id="button" transform="translate(-3.6949 73.932)" x="32" y="8" width="100%" height="100%" xlink:href="#base-button"/>
 <use id="button-hover" transform="translate(-3.6949 73.932)" x="32" y="28" width="100%" height="100%" xlink:href="#base-button-hover"/>
 <use id="button-active" transform="translate(-3.6949 73.932)" x="32" y="48" width="100%" height="100%" xlink:href="#base-button-active"/>
 <use id="button-insensitive" transform="translate(-3.6949 73.932)" x="32" y="68" width="100%" height="100%" xlink:href="#base-button-insensitive"/>
 <use id="combo-rtl-button" transform="translate(-3.6949 73.932)" x="52" y="8" width="100%" height="100%" xlink:href="#base-combo-rtl-button"/>
 <use id="combo-rtl-button-hover" transform="translate(-3.6949 73.932)" x="52" y="28" width="100%" height="100%" xlink:href="#base-combo-rtl-button-hover"/>
 <use id="combo-rtl-button-active" transform="translate(-3.6949 73.932)" x="52" y="48" width="100%" height="100%" xlink:href="#base-combo-rtl-button-active"/>
 <use id="combo-rtl-button-insensitive" transform="translate(-3.6949 73.932)" x="52" y="68" width="100%" height="100%" xlink:href="#base-combo-rtl-button-insensitive"/>
 <use id="combo-ltr-button" transform="translate(-3.6949 73.932)" x="56" y="8" width="100%" height="100%" xlink:href="#base-combo-ltr-button"/>
 <use id="combo-ltr-button-hover" transform="translate(-3.6949 73.932)" x="56" y="28" width="100%" height="100%" xlink:href="#base-combo-ltr-button-hover"/>
 <use id="combo-ltr-button-active" transform="translate(-3.6949 73.932)" x="56" y="48" width="100%" height="100%" xlink:href="#base-combo-ltr-button-active"/>
 <use id="combo-ltr-button-insensitive" transform="translate(-3.6949 73.932)" x="56" y="68" width="100%" height="100%" xlink:href="#base-combo-ltr-button-insensitive"/>
 <use id="spin-rtl-up" transform="translate(-3.6949 73.932)" x="76" y="8" width="100%" height="100%" xlink:href="#base-spin-rtl-up"/>
 <use id="spin-rtl-up-hover" transform="translate(-3.6949 73.932)" x="76" y="28" width="100%" height="100%" xlink:href="#base-spin-rtl-up-hover"/>
 <use id="spin-rtl-up-active" transform="translate(-3.6949 73.932)" x="76" y="48" width="100%" height="100%" xlink:href="#base-spin-rtl-up-active"/>
 <use id="spin-rtl-up-insensitive" transform="translate(-3.6949 73.932)" x="76" y="68" width="100%" height="100%" xlink:href="#base-spin-rtl-up-insensitive"/>
 <use id="spin-rtl-down" transform="translate(-3.6949 73.932)" x="76" y="8" width="100%" height="100%" xlink:href="#base-spin-rtl-down"/>
 <use id="spin-rtl-down-hover" transform="translate(-3.6949 73.932)" x="76" y="28" width="100%" height="100%" xlink:href="#base-spin-rtl-down-hover"/>
 <use id="spin-rtl-down-active" transform="translate(-3.6949 73.932)" x="76" y="48" width="100%" height="100%" xlink:href="#base-spin-rtl-down-active"/>
 <use id="spin-rtl-down-insensitive" transform="translate(-3.6949 73.932)" x="76" y="68" width="100%" height="100%" xlink:href="#base-spin-rtl-down-insensitive"/>
 <use id="spin-ltr-up" transform="translate(-3.6949 73.932)" x="80" y="8" width="100%" height="100%" xlink:href="#base-spin-ltr-up"/>
 <use id="spin-ltr-up-hover" transform="translate(-3.6949 73.932)" x="80" y="28" width="100%" height="100%" xlink:href="#base-spin-ltr-up-hover"/>
 <use id="spin-ltr-up-active" transform="translate(-3.6949 73.932)" x="80" y="48" width="100%" height="100%" xlink:href="#base-spin-ltr-up-active"/>
 <use id="spin-ltr-up-insensitive" transform="translate(-3.6949 73.932)" x="80" y="68" width="100%" height="100%" xlink:href="#base-spin-ltr-up-insensitive"/>
 <use id="spin-ltr-down" transform="translate(-3.6949 73.932)" x="80" y="8" width="100%" height="100%" xlink:href="#base-spin-ltr-down"/>
 <use id="spin-ltr-down-hover" transform="translate(-3.6949 73.932)" x="80" y="28" width="100%" height="100%" xlink:href="#base-spin-ltr-down-hover"/>
 <use id="spin-ltr-down-active" transform="translate(-3.6949 73.932)" x="80" y="48" width="100%" height="100%" xlink:href="#base-spin-ltr-down-active"/>
 <use id="spin-ltr-down-insensitive" transform="translate(-3.6949 73.932)" x="80" y="68" width="100%" height="100%" xlink:href="#base-spin-ltr-down-insensitive"/>
 <use id="entry-background" transform="translate(-3.6949 73.932)" x="104" y="8" width="100%" height="100%" xlink:href="#base-entry-background"/>
 <use id="entry-background-insensitive" transform="translate(-3.6949 73.932)" x="104" y="16" width="100%" height="100%" xlink:href="#base-entry-background-insensitive"/>
 <use id="entry" transform="translate(-3.6949 73.932)" x="104" y="28" width="100%" height="100%" fill="url(#t)" xlink:href="#base-entry"/>
 <use id="entry-active" transform="translate(-3.6949 73.932)" x="104" y="48" width="100%" height="100%" fill="url(#s)" xlink:href="#base-entry-active"/>
 <use id="entry-insensitive" transform="translate(-3.6949 73.932)" x="104" y="68" width="100%" height="100%" fill="url(#r)" xlink:href="#base-entry-insensitive"/>
 <use id="combo-ltr-entry" transform="translate(-3.6949 73.932)" x="124" y="28" width="100%" height="100%" fill="url(#q)" xlink:href="#base-combo-ltr-entry"/>
 <use id="combo-ltr-entry-active" transform="translate(-3.6949 73.932)" x="124" y="48" width="100%" height="100%" fill="url(#p)" xlink:href="#base-combo-ltr-entry-active"/>
 <use id="combo-ltr-entry-insensitive" transform="translate(-3.6949 73.932)" x="124" y="68" width="100%" height="100%" fill="url(#o)" xlink:href="#base-combo-ltr-entry-insensitive"/>
 <use id="combo-rtl-entry" transform="translate(-3.6949 73.932)" x="128" y="28" width="100%" height="100%" fill="url(#n)" xlink:href="#base-combo-rtl-entry"/>
 <use id="combo-rtl-entry-active" transform="translate(-3.6949 73.932)" x="128" y="48" width="100%" height="100%" fill="url(#m)" xlink:href="#base-combo-rtl-entry-active"/>
 <use id="combo-rtl-entry-insensitive" transform="translate(-3.6949 73.932)" x="128" y="68" width="100%" height="100%" fill="url(#l)" xlink:href="#base-combo-rtl-entry-insensitive"/>
 <use id="notebook-entry" transform="translate(-3.6949 73.932)" x="152" y="28" width="100%" height="100%" fill="url(#k)" xlink:href="#base-entry"/>
 <use id="notebook-entry-active" transform="translate(-3.6949 73.932)" x="152" y="48" width="100%" height="100%" fill="url(#j)" xlink:href="#base-entry-active"/>
 <use id="notebook-entry-insensitive" transform="translate(-3.6949 73.932)" x="152" y="68" width="100%" height="100%" fill="url(#i)" xlink:href="#base-entry-insensitive"/>
 <use id="notebook-combo-ltr-entry" transform="translate(-3.6949 73.932)" x="172" y="28" width="100%" height="100%" fill="url(#h)" xlink:href="#base-combo-ltr-entry"/>
 <use id="notebook-combo-ltr-entry-active" transform="translate(-3.6949 73.932)" x="172" y="48" width="100%" height="100%" fill="url(#g)" xlink:href="#base-combo-ltr-entry-active"/>
 <use id="notebook-combo-ltr-entry-insensitive" transform="translate(-3.6949 73.932)" x="172" y="68" width="100%" height="100%" fill="url(#f)" xlink:href="#base-combo-ltr-entry-insensitive"/>
 <use id="notebook-combo-rtl-entry" transform="translate(-3.6949 73.932)" x="176" y="28" width="100%" height="100%" fill="url(#e)" xlink:href="#base-combo-rtl-entry"/>
 <use id="notebook-combo-rtl-entry-active" transform="translate(-3.6949 73.932)" x="176" y="48" width="100%" height="100%" fill="url(#d)" xlink:href="#base-combo-rtl-entry-active"/>
 <use id="notebook-combo-rtl-entry-insensitive" transform="translate(-3.6949 73.932)" x="176" y="68" width="100%" height="100%" fill="url(#c)" xlink:href="#base-combo-rtl-entry-insensitive"/>
 <use id="frame" transform="translate(-83.695 -238.07)" x="132" y="408" width="100%" height="100%" xlink:href="#base-frame"/>
 <use id="frame-notebook" transform="translate(-83.695 -238.07)" x="144" y="408" width="100%" height="100%" xlink:href="#base-frame-notebook"/>
 <use id="frame-inline" transform="translate(-83.695 -238.07)" x="156" y="408" width="100%" height="100%" xlink:href="#base-frame-inline"/>
</svg>
