<?xml version="1.0" encoding="UTF-8" standalone="no"?>
<!-- Created with Inkscape (http://www.inkscape.org/) -->

<svg
   xmlns:dc="http://purl.org/dc/elements/1.1/"
   xmlns:cc="http://creativecommons.org/ns#"
   xmlns:rdf="http://www.w3.org/1999/02/22-rdf-syntax-ns#"
   xmlns:svg="http://www.w3.org/2000/svg"
   xmlns="http://www.w3.org/2000/svg"
   xmlns:sodipodi="http://sodipodi.sourceforge.net/DTD/sodipodi-0.dtd"
   xmlns:inkscape="http://www.inkscape.org/namespaces/inkscape"
   width="64"
   height="64"
   id="svg2"
   version="1.1"
   inkscape:version="0.92.2 (5c3e80d, 2017-08-06)"
   sodipodi:docname="default-user-desktop.svg"
   inkscape:export-filename="/media/Data/Main/Visuals/Icons/Numix/Desktop/repos/numix-wiki/Gjorgi/Numix-folders/48/New/folder-144.png"
   inkscape:export-xdpi="270"
   inkscape:export-ydpi="270">
  <defs
     id="defs4">
    <filter
       inkscape:collect="always"
       style="color-interpolation-filters:sRGB"
       id="filter4149"
       x="-0.096"
       width="1.192"
       y="-0.096"
       height="1.192">
      <feGaussianBlur
         inkscape:collect="always"
         stdDeviation="1.12"
         id="feGaussianBlur4151" />
    </filter>
  </defs>
  <sodipodi:namedview
     id="base"
     pagecolor="#ffffff"
     bordercolor="#666666"
     borderopacity="1.0"
     inkscape:pageopacity="0.0"
     inkscape:pageshadow="2"
     inkscape:zoom="5.6497833"
     inkscape:cx="11.117234"
     inkscape:cy="31.558199"
     inkscape:document-units="px"
     inkscape:current-layer="layer1"
     showgrid="true"
     inkscape:window-width="1366"
     inkscape:window-height="740"
     inkscape:window-x="0"
     inkscape:window-y="28"
     inkscape:window-maximized="1"
     showguides="true"
     inkscape:guide-bbox="true">
    <inkscape:grid
       type="xygrid"
       id="grid2985"
       empspacing="5"
       visible="true"
       enabled="true"
       snapvisiblegridlinesonly="true" />
  </sodipodi:namedview>
  <metadata
     id="metadata7">
    <rdf:RDF>
      <cc:Work
         rdf:about="">
        <dc:format>image/svg+xml</dc:format>
        <dc:type
           rdf:resource="http://purl.org/dc/dcmitype/StillImage" />
        <dc:title />
      </cc:Work>
    </rdf:RDF>
  </metadata>
  <g
     inkscape:label="Layer 1"
     inkscape:groupmode="layer"
     id="layer1"
     transform="translate(0,-988.3622)">
    <g
       style="isolation:isolate"
       id="组"
       transform="matrix(0.98969072,0,0,0.98969072,-391.89691,738.54777)">
      <path
         d="m 452.563,266.563 h -27.282 l -6.062,-6.063 h -15.156 c -3.335,0 -6.063,2.728 -6.063,6.063 v 12.125 h 60.625 v -6.063 c 0,-3.334 -2.728,-6.062 -6.062,-6.062 z"
         id="path2"
         inkscape:connector-curvature="0"
         style="fill:#ffa000" />
      <path
         d="m 452.563,266.563 h -48.5 c -3.335,0 -6.063,2.728 -6.063,6.062 v 30.313 c 0,3.334 2.728,6.062 6.063,6.062 h 48.5 c 3.334,0 6.062,-2.728 6.062,-6.062 v -30.313 c 0,-3.334 -2.728,-6.062 -6.062,-6.062 z"
         id="path4"
         inkscape:connector-curvature="0"
         style="fill:#ffca28" />
    </g>
    <g
       id="g4306"
       style="opacity:0.05;fill:#000000;filter:url(#filter4149)">
      <path
         sodipodi:nodetypes="sscsccccsccccccc"
         d="m 25,1020.3622 4e-4,6 c 1.33e-4,2 2,2 2,2 l 5.9996,0 c 2,0 2,-2 2,-2 l -4.01e-4,-4 -4,-4 -3.999199,0 c 0,0 -2.000533,0 -2.0004,2 z m 2,0 3,0 0,3 3,0 0,3 -5.9996,0 z"
         id="path8"
         inkscape:connector-curvature="0"
         style="fill:#000000;fill-opacity:1" />
      <path
         sodipodi:nodetypes="ccccccccc"
         inkscape:connector-curvature="0"
         id="path3838"
         d="m 28,1034.3622 -4,4 c -2,2 -2,2 0,2 l 16,0 c 2,0 2,0 0,-2 l -4,-4 0,-2 -8,0 z"
         style="opacity:1;fill:#000000;fill-opacity:1;stroke:none" />
      <path
         id="rect3831"
         d="m 22,1012.3622 c -2.216,0 -4,1.784 -4,4 l 0,14 c 0,2.216 1.784,4 4,4 l 20,0 c 2.216,0 4,-1.784 4,-4 l 0,-14 c 0,-2.216 -1.784,-4 -4,-4 z m 0,4 20,0 0,14 -20,0 z"
         style="opacity:1;fill:#000000;fill-opacity:1;stroke:none"
         inkscape:connector-curvature="0"
         sodipodi:nodetypes="sssssssssccccc" />
    </g>
    <g
       style="opacity:1;fill:#ffffff"
       id="g4153">
      <path
         style="fill:#ffffff;fill-opacity:1"
         inkscape:connector-curvature="0"
         id="path4155"
         d="m 25,1020.3622 4e-4,6 c 1.33e-4,2 2,2 2,2 l 5.9996,0 c 2,0 2,-2 2,-2 l -4.01e-4,-4 -4,-4 -3.999199,0 c 0,0 -2.000533,0 -2.0004,2 z m 2,0 3,0 0,3 3,0 0,3 -5.9996,0 z"
         sodipodi:nodetypes="sscsccccsccccccc" />
      <path
         style="opacity:1;fill:#ffffff;fill-opacity:1;stroke:none"
         d="m 28,1034.3622 -4,4 c -2,2 -2,2 0,2 l 16,0 c 2,0 2,0 0,-2 l -4,-4 0,-2 -8,0 z"
         id="path4157"
         inkscape:connector-curvature="0"
         sodipodi:nodetypes="ccccccccc" />
      <path
         sodipodi:nodetypes="sssssssssccccc"
         inkscape:connector-curvature="0"
         style="opacity:1;fill:#ffffff;fill-opacity:1;stroke:none"
         d="m 22,1012.3622 c -2.216,0 -4,1.784 -4,4 l 0,14 c 0,2.216 1.784,4 4,4 l 20,0 c 2.216,0 4,-1.784 4,-4 l 0,-14 c 0,-2.216 -1.784,-4 -4,-4 z m 0,4 20,0 0,14 -20,0 z"
         id="path4159" />
    </g>
  </g>
</svg>
