<?xml version="1.0" encoding="UTF-8" standalone="no"?>
<!-- Created with Inkscape (http://www.inkscape.org/) -->

<svg
   xmlns:dc="http://purl.org/dc/elements/1.1/"
   xmlns:cc="http://creativecommons.org/ns#"
   xmlns:rdf="http://www.w3.org/1999/02/22-rdf-syntax-ns#"
   xmlns:svg="http://www.w3.org/2000/svg"
   xmlns="http://www.w3.org/2000/svg"
   xmlns:sodipodi="http://sodipodi.sourceforge.net/DTD/sodipodi-0.dtd"
   xmlns:inkscape="http://www.inkscape.org/namespaces/inkscape"
   width="64"
   height="64"
   id="svg2"
   version="1.1"
   inkscape:version="0.92.2 (5c3e80d, 2017-08-06)"
   sodipodi:docname="default-folder-pictures.svg"
   inkscape:export-filename="/media/Data/Main/Visuals/Icons/Numix/Desktop/repos/numix-wiki/Gjorgi/Numix-folders/48/New/folder-144.png"
   inkscape:export-xdpi="270"
   inkscape:export-ydpi="270">
  <defs
     id="defs4">
    <filter
       inkscape:collect="always"
       style="color-interpolation-filters:sRGB"
       id="filter4249"
       x="-0.096"
       width="1.192"
       y="-0.096"
       height="1.192">
      <feGaussianBlur
         inkscape:collect="always"
         stdDeviation="0.56"
         id="feGaussianBlur4251" />
    </filter>
  </defs>
  <sodipodi:namedview
     id="base"
     pagecolor="#ffffff"
     bordercolor="#666666"
     borderopacity="1.0"
     inkscape:pageopacity="0.0"
     inkscape:pageshadow="2"
     inkscape:zoom="7.4607353"
     inkscape:cx="-3.0640354"
     inkscape:cy="28.613647"
     inkscape:document-units="px"
     inkscape:current-layer="layer1"
     showgrid="true"
     inkscape:window-width="1366"
     inkscape:window-height="740"
     inkscape:window-x="0"
     inkscape:window-y="28"
     inkscape:window-maximized="1"
     showguides="true"
     inkscape:guide-bbox="true">
    <inkscape:grid
       type="xygrid"
       id="grid2985"
       empspacing="5"
       visible="true"
       enabled="true"
       snapvisiblegridlinesonly="true" />
  </sodipodi:namedview>
  <metadata
     id="metadata7">
    <rdf:RDF>
      <cc:Work
         rdf:about="">
        <dc:format>image/svg+xml</dc:format>
        <dc:type
           rdf:resource="http://purl.org/dc/dcmitype/StillImage" />
        <dc:title />
      </cc:Work>
    </rdf:RDF>
  </metadata>
  <g
     inkscape:label="Layer 1"
     inkscape:groupmode="layer"
     id="layer1"
     transform="translate(0,-988.3622)">
    <g
       style="isolation:isolate"
       id="组"
       transform="matrix(0.98969072,0,0,0.98969072,-391.89691,738.54777)">
      <path
         d="m 452.563,266.563 h -27.282 l -6.062,-6.063 h -15.156 c -3.335,0 -6.063,2.728 -6.063,6.063 v 12.125 h 60.625 v -6.063 c 0,-3.334 -2.728,-6.062 -6.062,-6.062 z"
         id="path2"
         inkscape:connector-curvature="0"
         style="fill:#ffa000" />
      <path
         d="m 452.563,266.563 h -48.5 c -3.335,0 -6.063,2.728 -6.063,6.062 v 30.313 c 0,3.334 2.728,6.062 6.063,6.062 h 48.5 c 3.334,0 6.062,-2.728 6.062,-6.062 v -30.313 c 0,-3.334 -2.728,-6.062 -6.062,-6.062 z"
         id="path4"
         inkscape:connector-curvature="0"
         style="fill:#ffca28" />
    </g>
    <g
       id="g3956"
       style="opacity:0.05;fill:#000000;filter:url(#filter4249)"
       transform="matrix(2,0,0,2,60.84253,-1040.5912)">
      <g
         transform="translate(-22.421265,1025.4767)"
         id="g8"
         style="fill:#000000;fill-opacity:1">
        <g
           id="g10"
           transform="translate(0,-1036.3622)"
           style="fill:#000000;fill-opacity:1;fill-rule:evenodd">
          <path
             style="fill:#000000;fill-opacity:1"
             sodipodi:nodetypes="cccccccc"
             inkscape:connector-curvature="0"
             id="path14"
             d="m 1,1046.3622 4,-5 3.2817389,3.6779 2.2182611,-2.1779 4.5,6.5 -3,2 H 3 Z" />
        </g>
        <g
           style="fill:#000000;fill-opacity:1"
           id="g16"
           transform="translate(0,-1036.3622)" />
      </g>
      <path
         id="rect3007-9"
         d="m -19.421265,1026.4767 c -1.108,0 -2,0.892 -2,2 v 10 c 0,1.108 0.892,2 2,2 h 10 c 1.108,0 2,-0.892 2,-2 v -10 c 0,-1.108 -0.892,-2 -2,-2 z m 0,2 h 10 v 10 h -10 z"
         style="fill:#000000;fill-opacity:1"
         inkscape:connector-curvature="0"
         sodipodi:nodetypes="sssssssssccccc" />
    </g>
    <g
       transform="matrix(2,0,0,2,60.84253,-1040.5912)"
       style="opacity:1;fill:#ffffff"
       id="g4221">
      <g
         style="fill:#ffffff;fill-opacity:1"
         id="g4223"
         transform="translate(-22.421265,1025.4767)">
        <g
           style="fill:#ffffff;fill-opacity:1;fill-rule:evenodd"
           transform="translate(0,-1036.3622)"
           id="g4225">
          <path
             d="m 1,1046.3622 4,-5 3.2817389,3.6779 2.2182611,-2.1779 4.5,6.5 -3,2 H 3 Z"
             id="path4227"
             inkscape:connector-curvature="0"
             sodipodi:nodetypes="cccccccc"
             style="fill:#ffffff;fill-opacity:1" />
        </g>
        <g
           transform="translate(0,-1036.3622)"
           id="g4229"
           style="fill:#ffffff;fill-opacity:1" />
      </g>
      <path
         sodipodi:nodetypes="sssssssssccccc"
         inkscape:connector-curvature="0"
         style="fill:#ffffff;fill-opacity:1"
         d="m -19.421265,1026.4767 c -1.108,0 -2,0.892 -2,2 v 10 c 0,1.108 0.892,2 2,2 h 10 c 1.108,0 2,-0.892 2,-2 v -10 c 0,-1.108 -0.892,-2 -2,-2 z m 0,2 h 10 v 10 h -10 z"
         id="path4231" />
    </g>
  </g>
</svg>
