<?xml version="1.0" encoding="UTF-8" standalone="no"?>
<!-- Created with Inkscape (http://www.inkscape.org/) -->

<svg
   xmlns:dc="http://purl.org/dc/elements/1.1/"
   xmlns:cc="http://creativecommons.org/ns#"
   xmlns:rdf="http://www.w3.org/1999/02/22-rdf-syntax-ns#"
   xmlns:svg="http://www.w3.org/2000/svg"
   xmlns="http://www.w3.org/2000/svg"
   xmlns:sodipodi="http://sodipodi.sourceforge.net/DTD/sodipodi-0.dtd"
   xmlns:inkscape="http://www.inkscape.org/namespaces/inkscape"
   width="64"
   height="64"
   id="svg2"
   version="1.1"
   inkscape:version="0.92.2 (5c3e80d, 2017-08-06)"
   sodipodi:docname="default-folder-cloud.svg"
   inkscape:export-filename="/media/Data/Main/Visuals/Icons/Numix/Desktop/repos/numix-wiki/Gjorgi/Numix-folders/48/New/folder-144.png"
   inkscape:export-xdpi="270"
   inkscape:export-ydpi="270">
  <defs
     id="defs4">
    <filter
       inkscape:collect="always"
       style="color-interpolation-filters:sRGB"
       id="filter4189"
       x="-0.082285714"
       width="1.1645714"
       y="-0.1152"
       height="1.2304">
      <feGaussianBlur
         inkscape:collect="always"
         stdDeviation="0.48"
         id="feGaussianBlur4191" />
    </filter>
  </defs>
  <sodipodi:namedview
     id="base"
     pagecolor="#ffffff"
     bordercolor="#666666"
     borderopacity="1.0"
     inkscape:pageopacity="0.0"
     inkscape:pageshadow="2"
     inkscape:zoom="10.551073"
     inkscape:cx="20.024782"
     inkscape:cy="22.792413"
     inkscape:document-units="px"
     inkscape:current-layer="layer1"
     showgrid="true"
     inkscape:window-width="1366"
     inkscape:window-height="740"
     inkscape:window-x="0"
     inkscape:window-y="28"
     inkscape:window-maximized="1"
     showguides="true"
     inkscape:guide-bbox="true">
    <inkscape:grid
       type="xygrid"
       id="grid2985"
       empspacing="5"
       visible="true"
       enabled="true"
       snapvisiblegridlinesonly="true" />
  </sodipodi:namedview>
  <metadata
     id="metadata7">
    <rdf:RDF>
      <cc:Work
         rdf:about="">
        <dc:format>image/svg+xml</dc:format>
        <dc:type
           rdf:resource="http://purl.org/dc/dcmitype/StillImage" />
        <dc:title />
      </cc:Work>
    </rdf:RDF>
  </metadata>
  <g
     inkscape:label="Layer 1"
     inkscape:groupmode="layer"
     id="layer1"
     transform="translate(0,-988.3622)">
    <g
       style="isolation:isolate"
       id="组"
       transform="matrix(0.98969072,0,0,0.98969072,-391.89691,738.54777)">
      <path
         d="m 452.563,266.563 h -27.282 l -6.062,-6.063 h -15.156 c -3.335,0 -6.063,2.728 -6.063,6.063 v 12.125 h 60.625 v -6.063 c 0,-3.334 -2.728,-6.062 -6.062,-6.062 z"
         id="path2"
         inkscape:connector-curvature="0"
         style="fill:#ffa000" />
      <path
         d="m 452.563,266.563 h -48.5 c -3.335,0 -6.063,2.728 -6.063,6.062 v 30.313 c 0,3.334 2.728,6.062 6.063,6.062 h 48.5 c 3.334,0 6.062,-2.728 6.062,-6.062 v -30.313 c 0,-3.334 -2.728,-6.062 -6.062,-6.062 z"
         id="path4"
         inkscape:connector-curvature="0"
         style="fill:#ffca28" />
    </g>
    <g
       transform="matrix(2,0,0,2,9.9999998,-1059.3622)"
       id="g3919"
       style="opacity:0.05;fill:#000000;filter:url(#filter4189)">
      <path
         id="path3102"
         d="m 9,1045.8621 a 2.4999999,2.5000292 0 0 1 -2.5,2.5001 2.4999999,2.5000292 0 0 1 -2.5,-2.5001 2.4999999,2.5000292 0 0 1 2.5,-2.4999 2.4999999,2.5000292 0 0 1 2.5,2.4999 z"
         style="fill:#000000;fill-opacity:1;stroke:none"
         inkscape:connector-curvature="0" />
      <path
         id="path3100"
         d="m 13,1041.8622 a 3.5,3.4999796 0 0 1 -3.5,3.5 3.5,3.4999796 0 0 1 -3.5,-3.5 3.5,3.4999796 0 0 1 3.5,-3.5 3.5,3.4999796 0 0 1 3.5,3.5 z"
         style="fill:#000000;fill-opacity:1;stroke:none"
         inkscape:connector-curvature="0" />
      <path
         id="path3098"
         d="m 16,1041.8622 a 2.4999999,2.4999979 0 0 1 -2.5,2.4999 2.4999999,2.4999979 0 0 1 -2.5,-2.4999 2.4999999,2.4999979 0 0 1 2.5,-2.5001 2.4999999,2.4999979 0 0 1 2.5,2.5001 z"
         style="fill:#000000;fill-opacity:1;stroke:none"
         inkscape:connector-curvature="0" />
      <path
         id="path3096"
         d="m 18,1045.8622 a 2.4999999,2.4999979 0 0 1 -2.5,2.5 2.4999999,2.4999979 0 0 1 -2.5,-2.5 2.4999999,2.4999979 0 0 1 2.5,-2.5 2.4999999,2.4999979 0 0 1 2.5,2.5 z"
         style="fill:#000000;fill-opacity:1;stroke:none"
         inkscape:connector-curvature="0" />
      <path
         id="rect3408"
         d="m 6,1043.3622 10,0 0,5 -10,0 z"
         style="fill:#000000;fill-opacity:1;stroke:none"
         inkscape:connector-curvature="0" />
    </g>
    <g
       style="opacity:1;fill:#ffffff"
       id="g4193"
       transform="matrix(2,0,0,2,9.9999998,-1059.3622)">
      <path
         inkscape:connector-curvature="0"
         style="fill:#ffffff;fill-opacity:1;stroke:none"
         d="m 9,1045.8621 a 2.4999999,2.5000292 0 0 1 -2.5,2.5001 2.4999999,2.5000292 0 0 1 -2.5,-2.5001 2.4999999,2.5000292 0 0 1 2.5,-2.4999 2.4999999,2.5000292 0 0 1 2.5,2.4999 z"
         id="path4195" />
      <path
         inkscape:connector-curvature="0"
         style="fill:#ffffff;fill-opacity:1;stroke:none"
         d="m 13,1041.8622 a 3.5,3.4999796 0 0 1 -3.5,3.5 3.5,3.4999796 0 0 1 -3.5,-3.5 3.5,3.4999796 0 0 1 3.5,-3.5 3.5,3.4999796 0 0 1 3.5,3.5 z"
         id="path4197" />
      <path
         inkscape:connector-curvature="0"
         style="fill:#ffffff;fill-opacity:1;stroke:none"
         d="m 16,1041.8622 a 2.4999999,2.4999979 0 0 1 -2.5,2.4999 2.4999999,2.4999979 0 0 1 -2.5,-2.4999 2.4999999,2.4999979 0 0 1 2.5,-2.5001 2.4999999,2.4999979 0 0 1 2.5,2.5001 z"
         id="path4199" />
      <path
         inkscape:connector-curvature="0"
         style="fill:#ffffff;fill-opacity:1;stroke:none"
         d="m 18,1045.8622 a 2.4999999,2.4999979 0 0 1 -2.5,2.5 2.4999999,2.4999979 0 0 1 -2.5,-2.5 2.4999999,2.4999979 0 0 1 2.5,-2.5 2.4999999,2.4999979 0 0 1 2.5,2.5 z"
         id="path4201" />
      <path
         inkscape:connector-curvature="0"
         style="fill:#ffffff;fill-opacity:1;stroke:none"
         d="m 6,1043.3622 10,0 0,5 -10,0 z"
         id="path4203" />
    </g>
  </g>
</svg>
