<?xml version="1.0" encoding="UTF-8" standalone="no"?>
<!-- Created with Inkscape (http://www.inkscape.org/) -->

<svg
   xmlns:dc="http://purl.org/dc/elements/1.1/"
   xmlns:cc="http://creativecommons.org/ns#"
   xmlns:rdf="http://www.w3.org/1999/02/22-rdf-syntax-ns#"
   xmlns:svg="http://www.w3.org/2000/svg"
   xmlns="http://www.w3.org/2000/svg"
   xmlns:sodipodi="http://sodipodi.sourceforge.net/DTD/sodipodi-0.dtd"
   xmlns:inkscape="http://www.inkscape.org/namespaces/inkscape"
   width="64"
   height="64"
   id="svg2"
   version="1.1"
   inkscape:version="0.92.2 (5c3e80d, 2017-08-06)"
   sodipodi:docname="default-folder-download.svg"
   inkscape:export-filename="/media/Data/Main/Visuals/Icons/Numix/Desktop/repos/numix-wiki/Gjorgi/Numix-folders/48/New/folder-144.png"
   inkscape:export-xdpi="270"
   inkscape:export-ydpi="270">
  <defs
     id="defs4">
    <filter
       inkscape:collect="always"
       style="color-interpolation-filters:sRGB"
       id="filter4249"
       x="-0.092571458"
       width="1.1851429"
       y="-0.099692274"
       height="1.1993845">
      <feGaussianBlur
         inkscape:collect="always"
         stdDeviation="1.0800003"
         id="feGaussianBlur4251" />
    </filter>
  </defs>
  <sodipodi:namedview
     id="base"
     pagecolor="#ffffff"
     bordercolor="#666666"
     borderopacity="1.0"
     inkscape:pageopacity="0.0"
     inkscape:pageshadow="2"
     inkscape:zoom="9.1837752"
     inkscape:cx="19.079651"
     inkscape:cy="24.322513"
     inkscape:document-units="px"
     inkscape:current-layer="layer1"
     showgrid="true"
     inkscape:window-width="1366"
     inkscape:window-height="740"
     inkscape:window-x="0"
     inkscape:window-y="28"
     inkscape:window-maximized="1"
     showguides="true"
     inkscape:guide-bbox="true">
    <inkscape:grid
       type="xygrid"
       id="grid2985"
       empspacing="5"
       visible="true"
       enabled="true"
       snapvisiblegridlinesonly="true" />
  </sodipodi:namedview>
  <metadata
     id="metadata7">
    <rdf:RDF>
      <cc:Work
         rdf:about="">
        <dc:format>image/svg+xml</dc:format>
        <dc:type
           rdf:resource="http://purl.org/dc/dcmitype/StillImage" />
        <dc:title />
      </cc:Work>
    </rdf:RDF>
  </metadata>
  <g
     inkscape:label="Layer 1"
     inkscape:groupmode="layer"
     id="layer1"
     transform="translate(0,-988.3622)">
    <g
       style="isolation:isolate"
       id="组"
       transform="matrix(0.98969072,0,0,0.98969072,-391.89691,738.54777)">
      <path
         d="m 452.563,266.563 h -27.282 l -6.062,-6.063 h -15.156 c -3.335,0 -6.063,2.728 -6.063,6.063 v 12.125 h 60.625 v -6.063 c 0,-3.334 -2.728,-6.062 -6.062,-6.062 z"
         id="path2"
         inkscape:connector-curvature="0"
         style="fill:#ffa000" />
      <path
         d="m 452.563,266.563 h -48.5 c -3.335,0 -6.063,2.728 -6.063,6.062 v 30.313 c 0,3.334 2.728,6.062 6.063,6.062 h 48.5 c 3.334,0 6.062,-2.728 6.062,-6.062 v -30.313 c 0,-3.334 -2.728,-6.062 -6.062,-6.062 z"
         id="path4"
         inkscape:connector-curvature="0"
         style="fill:#ffca28" />
    </g>
    <g
       id="g3892"
       style="opacity:0.05;fill:#000000;filter:url(#filter4249)">
      <rect
         ry="1.9052078"
         rx="1.9999999"
         y="1035.3622"
         x="18"
         height="4.0000172"
         width="28"
         id="rect2989"
         style="opacity:1;fill:#000000;fill-opacity:1;stroke:none" />
      <rect
         transform="rotate(90)"
         style="opacity:1;fill:#000000;fill-opacity:1;stroke:none"
         id="rect2991-6"
         width="12.000017"
         height="3.999999"
         x="1027.3622"
         y="-22"
         rx="1.9999999"
         ry="1.9289058" />
      <rect
         ry="1.9289058"
         rx="1.9999999"
         y="-46"
         x="1027.3622"
         height="4"
         width="12.000017"
         id="rect2993"
         style="opacity:1;fill:#000000;fill-opacity:1;stroke:none"
         transform="rotate(90)" />
      <path
         sodipodi:nodetypes="ccccccc"
         inkscape:connector-curvature="0"
         id="path2997-6"
         d="m 34,1031.3622 c -2,2 -2,2 -4,0 l -4,-4 c -2,-2 -2,-2 0,-2 h 11.999999 c 2,0 2,0 0,2 z"
         style="opacity:1;fill:#000000;fill-opacity:1;stroke:none" />
      <rect
         ry="2"
         rx="2"
         y="1013.3622"
         x="30"
         height="16"
         width="4"
         id="rect2995"
         style="opacity:1;fill:#000000;fill-opacity:1;stroke:none" />
    </g>
    <g
       style="opacity:1;fill:#ffffff"
       id="g4253">
      <rect
         style="opacity:1;fill:#ffffff;fill-opacity:1;stroke:none"
         id="rect4255"
         width="28"
         height="4.0000172"
         x="18"
         y="1035.3622"
         rx="1.9999999"
         ry="1.9052078" />
      <rect
         ry="1.9289058"
         rx="1.9999999"
         y="-22"
         x="1027.3622"
         height="3.999999"
         width="12.000017"
         id="rect4257"
         style="opacity:1;fill:#ffffff;fill-opacity:1;stroke:none"
         transform="rotate(90)" />
      <rect
         transform="rotate(90)"
         style="opacity:1;fill:#ffffff;fill-opacity:1;stroke:none"
         id="rect4259"
         width="12.000017"
         height="4"
         x="1027.3622"
         y="-46"
         rx="1.9999999"
         ry="1.9289058" />
      <path
         style="opacity:1;fill:#ffffff;fill-opacity:1;stroke:none"
         d="m 34,1031.3622 c -2,2 -2,2 -4,0 l -4,-4 c -2,-2 -2,-2 0,-2 h 11.999999 c 2,0 2,0 0,2 z"
         id="path4261"
         inkscape:connector-curvature="0"
         sodipodi:nodetypes="ccccccc" />
      <rect
         style="opacity:1;fill:#ffffff;fill-opacity:1;stroke:none"
         id="rect4263"
         width="4"
         height="16"
         x="30"
         y="1013.3622"
         rx="2"
         ry="2" />
    </g>
  </g>
</svg>
