<?xml version="1.0" encoding="UTF-8" standalone="no"?>
<!-- Created with Inkscape (http://www.inkscape.org/) -->

<svg
   xmlns:dc="http://purl.org/dc/elements/1.1/"
   xmlns:cc="http://creativecommons.org/ns#"
   xmlns:rdf="http://www.w3.org/1999/02/22-rdf-syntax-ns#"
   xmlns:svg="http://www.w3.org/2000/svg"
   xmlns="http://www.w3.org/2000/svg"
   xmlns:sodipodi="http://sodipodi.sourceforge.net/DTD/sodipodi-0.dtd"
   xmlns:inkscape="http://www.inkscape.org/namespaces/inkscape"
   width="64"
   height="64"
   id="svg2"
   version="1.1"
   inkscape:version="0.92.2 (5c3e80d, 2017-08-06)"
   sodipodi:docname="default-folder-saved-search.svg"
   inkscape:export-filename="/media/Data/Main/Visuals/Icons/Numix/Desktop/repos/numix-wiki/Gjorgi/Numix-folders/48/New/folder-144.png"
   inkscape:export-xdpi="270"
   inkscape:export-ydpi="270">
  <defs
     id="defs4">
    <filter
       inkscape:collect="always"
       style="color-interpolation-filters:sRGB"
       id="filter4148"
       x="-0.09599993"
       width="1.1919999"
       y="-0.09600007"
       height="1.1920001">
      <feGaussianBlur
         inkscape:collect="always"
         stdDeviation="1.1200003"
         id="feGaussianBlur4150" />
    </filter>
  </defs>
  <sodipodi:namedview
     id="base"
     pagecolor="#ffffff"
     bordercolor="#666666"
     borderopacity="1.0"
     inkscape:pageopacity="0.0"
     inkscape:pageshadow="2"
     inkscape:zoom="8.5701345"
     inkscape:cx="24.894982"
     inkscape:cy="29.063131"
     inkscape:document-units="px"
     inkscape:current-layer="layer1"
     showgrid="true"
     inkscape:window-width="1366"
     inkscape:window-height="740"
     inkscape:window-x="0"
     inkscape:window-y="28"
     inkscape:window-maximized="1"
     showguides="true"
     inkscape:guide-bbox="true">
    <inkscape:grid
       type="xygrid"
       id="grid2985"
       empspacing="5"
       visible="true"
       enabled="true"
       snapvisiblegridlinesonly="true" />
  </sodipodi:namedview>
  <metadata
     id="metadata7">
    <rdf:RDF>
      <cc:Work
         rdf:about="">
        <dc:format>image/svg+xml</dc:format>
        <dc:type
           rdf:resource="http://purl.org/dc/dcmitype/StillImage" />
        <dc:title />
      </cc:Work>
    </rdf:RDF>
  </metadata>
  <g
     inkscape:label="Layer 1"
     inkscape:groupmode="layer"
     id="layer1"
     transform="translate(0,-988.3622)">
    <g
       style="isolation:isolate"
       id="组"
       transform="matrix(0.98969072,0,0,0.98969072,-391.89691,738.54777)">
      <path
         d="m 452.563,266.563 h -27.282 l -6.062,-6.063 h -15.156 c -3.335,0 -6.063,2.728 -6.063,6.063 v 12.125 h 60.625 v -6.063 c 0,-3.334 -2.728,-6.062 -6.062,-6.062 z"
         id="path2"
         inkscape:connector-curvature="0"
         style="fill:#ffa000" />
      <path
         d="m 452.563,266.563 h -48.5 c -3.335,0 -6.063,2.728 -6.063,6.062 v 30.313 c 0,3.334 2.728,6.062 6.063,6.062 h 48.5 c 3.334,0 6.062,-2.728 6.062,-6.062 v -30.313 c 0,-3.334 -2.728,-6.062 -6.062,-6.062 z"
         id="path4"
         inkscape:connector-curvature="0"
         style="fill:#ffca28" />
    </g>
    <g
       id="g3874"
       style="opacity:0.05;fill:#000000;filter:url(#filter4148)">
      <rect
         transform="rotate(45)"
         ry="1.9999999"
         rx="2"
         y="706.08826"
         x="746.37506"
         height="16"
         width="4"
         id="rect3055"
         style="opacity:1;fill:#000000;fill-opacity:1;stroke:none" />
      <path
         inkscape:connector-curvature="0"
         id="path3869"
         transform="translate(0,988.3622)"
         d="m 36,24 c -5.522847,0 -10,4.477152 -10,10 0,5.522848 4.477153,10 10,10 5.522847,0 10,-4.477152 10,-10 0,-5.522848 -4.477153,-10 -10,-10 z m 0,3 c 3.865993,0 7,3.134007 7,7 0,3.865993 -3.134007,7 -7,7 -3.865993,0 -7,-3.134007 -7,-7 0,-3.865993 3.134007,-7 7,-7 z"
         style="opacity:1;fill:#000000;fill-opacity:1;stroke:none" />
    </g>
    <g
       style="opacity:1;fill:#ffffff"
       id="g4152">
      <rect
         style="opacity:1;fill:#ffffff;fill-opacity:1;stroke:none"
         id="rect4154"
         width="4"
         height="16"
         x="746.37506"
         y="706.08826"
         rx="2"
         ry="1.9999999"
         transform="rotate(45)" />
      <path
         inkscape:connector-curvature="0"
         style="opacity:1;fill:#ffffff;fill-opacity:1;stroke:none"
         d="m 36,24 c -5.522847,0 -10,4.477152 -10,10 0,5.522848 4.477153,10 10,10 5.522847,0 10,-4.477152 10,-10 0,-5.522848 -4.477153,-10 -10,-10 z m 0,3 c 3.865993,0 7,3.134007 7,7 0,3.865993 -3.134007,7 -7,7 -3.865993,0 -7,-3.134007 -7,-7 0,-3.865993 3.134007,-7 7,-7 z"
         transform="translate(0,988.3622)"
         id="path4156" />
    </g>
  </g>
</svg>
