<?xml version="1.0" encoding="UTF-8" standalone="no"?>
<svg
   xmlns:dc="http://purl.org/dc/elements/1.1/"
   xmlns:cc="http://creativecommons.org/ns#"
   xmlns:rdf="http://www.w3.org/1999/02/22-rdf-syntax-ns#"
   xmlns:svg="http://www.w3.org/2000/svg"
   xmlns="http://www.w3.org/2000/svg"
   xmlns:xlink="http://www.w3.org/1999/xlink"
   xmlns:sodipodi="http://sodipodi.sourceforge.net/DTD/sodipodi-0.dtd"
   xmlns:inkscape="http://www.inkscape.org/namespaces/inkscape"
   width="64"
   viewBox="0 0 64 64"
   height="64"
   id="svg2"
   version="1.1"
   inkscape:version="0.92.2 (5c3e80d, 2017-08-06)"
   sodipodi:docname="edittrash.svg">
  <metadata
     id="metadata20">
    <rdf:RDF>
      <cc:Work
         rdf:about="">
        <dc:format>image/svg+xml</dc:format>
        <dc:type
           rdf:resource="http://purl.org/dc/dcmitype/StillImage" />
        <dc:title />
      </cc:Work>
    </rdf:RDF>
  </metadata>
  <defs
     id="defs18">
    <linearGradient
       inkscape:collect="always"
       id="linearGradient3892">
      <stop
         style="stop-color:#000000;stop-opacity:1;"
         offset="0"
         id="stop3894" />
      <stop
         style="stop-color:#000000;stop-opacity:0;"
         offset="1"
         id="stop3896" />
    </linearGradient>
    <radialGradient
       inkscape:collect="always"
       xlink:href="#linearGradient3892"
       id="radialGradient3898"
       cx="33"
       cy="59"
       fx="33"
       fy="59"
       r="27"
       gradientTransform="matrix(1.1472851,0,0,0.21246022,-5.8604093,45.942561)"
       gradientUnits="userSpaceOnUse" />
    <filter
       inkscape:collect="always"
       style="color-interpolation-filters:sRGB"
       id="filter4230"
       x="-0.063333333"
       width="1.1266667"
       y="-0.057"
       height="1.114">
      <feGaussianBlur
         inkscape:collect="always"
         stdDeviation="3.8"
         id="feGaussianBlur4232" />
    </filter>
    <filter
       inkscape:collect="always"
       style="color-interpolation-filters:sRGB"
       id="filter4212"
       x="-0.092543998"
       width="1.185088"
       y="-0.09972414"
       height="1.1994483">
      <feGaussianBlur
         inkscape:collect="always"
         stdDeviation="0.54763869"
         id="feGaussianBlur4214" />
    </filter>
  </defs>
  <sodipodi:namedview
     pagecolor="#ffffff"
     bordercolor="#666666"
     borderopacity="1"
     objecttolerance="10"
     gridtolerance="10"
     guidetolerance="10"
     inkscape:pageopacity="0"
     inkscape:pageshadow="2"
     inkscape:window-width="1366"
     inkscape:window-height="740"
     id="namedview16"
     showgrid="false"
     inkscape:zoom="12.573242"
     inkscape:cx="30.432367"
     inkscape:cy="-4.3756885"
     inkscape:window-x="0"
     inkscape:window-y="28"
     inkscape:window-maximized="1"
     inkscape:current-layer="svg2"
     showguides="true"
     inkscape:guide-bbox="true"
     inkscape:snap-bbox="true"
     inkscape:bbox-nodes="true"
     inkscape:bbox-paths="true"
     inkscape:snap-bbox-edge-midpoints="true"
     inkscape:snap-bbox-midpoints="true"
     inkscape:object-paths="true"
     inkscape:snap-intersection-paths="true"
     inkscape:object-nodes="true"
     inkscape:snap-global="false">
    <inkscape:grid
       type="xygrid"
       id="grid2997"
       empspacing="5"
       visible="true"
       enabled="true"
       snapvisiblegridlinesonly="true" />
  </sodipodi:namedview>
  <ellipse
     style="opacity:0.2;fill:url(#radialGradient3898);fill-opacity:1;stroke:none"
     id="path3114"
     cx="32"
     cy="58.477711"
     rx="30.9767"
     ry="5.7364259" />
  <path
     inkscape:connector-curvature="0"
     id="path3801"
     d="m 33.754672,12.340324 -8.773358,5.581391 5.264015,0 z"
     style="fill:none;stroke:none" />
  <path
     sodipodi:nodetypes="sccssss"
     inkscape:connector-curvature="0"
     id="path4228"
     d="m 117,111 8,-152 -144,0 8,152 c 0.2328,4.42588 3.568,8 8,8 l 112,0 c 4.432,0 8,-3.568 8,-8 z"
     style="display:inline;opacity:0.1;fill:#000000;fill-opacity:1;stroke:none;filter:url(#filter4230);enable-background:new"
     transform="matrix(0.34105751,0,0,0.34105751,13.923952,18.573984)" />
  <path
     style="display:inline;opacity:1;fill:#ffffff;fill-opacity:1;stroke:none;enable-background:new"
     d="m 53.82768,56.681613 2.72846,-51.8407466 -49.1122802,0 2.7284582,51.8407466 c 0.07939,1.509476 1.216895,2.728456 2.728462,2.728456 l 38.198441,0 c 1.511566,0 2.728459,-1.216889 2.728459,-2.728456 z"
     id="path4221"
     inkscape:connector-curvature="0"
     sodipodi:nodetypes="sccssss" />
  <path
     inkscape:connector-curvature="0"
     style="display:inline;opacity:0.3;fill:#ffffff;fill-opacity:1;stroke:none;enable-background:new"
     d="m 7.4438541,4.8408664 0.017966,0.3410572 49.0763135,0 0.01801,-0.3410572 -49.1122828,0 z"
     id="path4223" />
  <g
     transform="matrix(2.1191101,0,0,2.1191101,-34.699109,-19.118359)"
     id="g3394"
     style="fill:#000000;opacity:0.05;filter:url(#filter4212)">
    <path
       inkscape:connector-curvature="0"
       style="fill:#000000"
       d="m 30.341915,31.238282 -0.0039,-3.824219 c -0.875,0 -1.746094,0 -2.621094,0 l -3.128912,-0.566406 2.0625,3.699219 c 0.101562,0.179687 0.707031,0.691406 1.730468,0.691406 z"
       id="path3396" />
    <path
       inkscape:connector-curvature="0"
       style="fill:#000000"
       d="m 27.716915,27.414063 0.671875,-1.207031 0.859375,0.511719 -0.609375,-1.761719 -0.609375,-1.757813 -1.78125,0.332032 -1.777344,0.332031 0.71875,0.429687 -0.585937,1.046876 c -0.277344,0.5 -0.328125,0.949218 -0.01563,1.507812 l 2.0625,3.699219 c 0.05078,0.08984 0.230468,0.261719 0.523437,0.414062 -1,-0.722656 -0.421875,-1.847656 0.542969,-3.546875 z"
       id="path3398" />
    <path
       inkscape:connector-curvature="0"
       style="fill:#000000"
       d="m 26.588009,21.722657 3.203125,1.914062 c 0.4375,-0.785156 0.875,-1.570312 1.308593,-2.355468 l 2.042969,-2.515625 -4.128906,0 c -0.203125,0 -0.933594,0.285156 -1.445313,1.199219 z"
       id="path3400" />
    <path
       inkscape:connector-curvature="0"
       style="fill:#000000"
       d="m 31.099727,21.285157 0.675782,1.207031 -0.859375,0.515625 1.78125,0.332032 1.777343,0.332031 0.613282,-1.757813 0.609375,-1.761718 -0.71875,0.429687 -0.585938,-1.050781 c -0.277343,-0.5 -0.628906,-0.765625 -1.25,-0.765625 l -4.128906,0 c -0.101563,0 -0.335937,0.07031 -0.609375,0.257812 1.101562,-0.53125 1.757812,0.546875 2.695312,2.261719 z"
       id="path3402" />
    <path
       inkscape:connector-curvature="0"
       style="fill:#000000"
       d="m 37.23254,23.175782 -3.316406,1.914063 c 0.4375,0.757812 0.875,1.515624 1.316406,2.269531 l 1.070313,2.992187 2.171874,-3.636718 c 0.105469,-0.175782 0.246094,-0.957032 -0.261718,-1.84375 z"
       id="path3404" />
    <path
       inkscape:connector-curvature="0"
       style="fill:#000000"
       d="m 35.23254,27.359376 -1.386719,0.01953 0.01563,-1 -2.4375,2.820312 1.175781,1.371094 1.179688,1.375 0.01172,-0.835937 1.203125,-0.01953 c 0.570312,-0.0078 0.980468,-0.1875 1.308594,-0.738282 l 2.171874,-3.636718 c 0.05469,-0.08984 0.117188,-0.328126 0.09766,-0.660157 -0.125,1.226563 -1.386719,1.289063 -3.339844,1.304688 z"
       id="path3406" />
  </g>
  <g
     id="g3418"
     transform="matrix(2.1191101,0,0,2.1191101,-34.699109,-19.118359)">
    <path
       id="path4"
       d="m 30.341915,31.238282 -0.0039,-3.824219 c -0.875,0 -1.746094,0 -2.621094,0 l -3.128912,-0.566406 2.0625,3.699219 c 0.101562,0.179687 0.707031,0.691406 1.730468,0.691406 z"
       style="fill:#ff5555;opacity:0.75"
       inkscape:connector-curvature="0" />
    <path
       id="path6"
       d="m 27.716915,27.414063 0.671875,-1.207031 0.859375,0.511719 -0.609375,-1.761719 -0.609375,-1.757813 -1.78125,0.332032 -1.777344,0.332031 0.71875,0.429687 -0.585937,1.046876 c -0.277344,0.5 -0.328125,0.949218 -0.01563,1.507812 l 2.0625,3.699219 c 0.05078,0.08984 0.230468,0.261719 0.523437,0.414062 -1,-0.722656 -0.421875,-1.847656 0.542969,-3.546875 z"
       style="fill:#ffaaaa"
       inkscape:connector-curvature="0" />
    <path
       id="path8"
       d="m 26.588009,21.722657 3.203125,1.914062 c 0.4375,-0.785156 0.875,-1.570312 1.308593,-2.355468 l 2.042969,-2.515625 -4.128906,0 c -0.203125,0 -0.933594,0.285156 -1.445313,1.199219 z"
       style="fill:#ff5555;opacity:0.75"
       inkscape:connector-curvature="0" />
    <path
       id="path10"
       d="m 31.099727,21.285157 0.675782,1.207031 -0.859375,0.515625 1.78125,0.332032 1.777343,0.332031 0.613282,-1.757813 0.609375,-1.761718 -0.71875,0.429687 -0.585938,-1.050781 c -0.277343,-0.5 -0.628906,-0.765625 -1.25,-0.765625 l -4.128906,0 c -0.101563,0 -0.335937,0.07031 -0.609375,0.257812 1.101562,-0.53125 1.757812,0.546875 2.695312,2.261719 z"
       style="fill:#ffaaaa"
       inkscape:connector-curvature="0" />
    <path
       id="path12"
       d="m 37.23254,23.175782 -3.316406,1.914063 c 0.4375,0.757812 0.875,1.515624 1.316406,2.269531 l 1.070313,2.992187 2.171874,-3.636718 c 0.105469,-0.175782 0.246094,-0.957032 -0.261718,-1.84375 z"
       style="fill:#ff5555;opacity:0.75"
       inkscape:connector-curvature="0" />
    <path
       id="path14"
       d="m 35.23254,27.359376 -1.386719,0.01953 0.01563,-1 -2.4375,2.820312 1.175781,1.371094 1.179688,1.375 0.01172,-0.835937 1.203125,-0.01953 c 0.570312,-0.0078 0.980468,-0.1875 1.308594,-0.738282 l 2.171874,-3.636718 c 0.05469,-0.08984 0.117188,-0.328126 0.09766,-0.660157 -0.125,1.226563 -1.386719,1.289063 -3.339844,1.304688 z"
       style="fill:#ffaaaa"
       inkscape:connector-curvature="0" />
  </g>
</svg>
